<?xml version="1.0" encoding="utf-8"?>
<!-- Generator: Adobe Illustrator 24.0.1, SVG Export Plug-In . SVG Version: 6.00 Build 0)  -->
<svg version="1.1" xmlns="http://www.w3.org/2000/svg" xmlns:xlink="http://www.w3.org/1999/xlink" x="0px" y="0px"
	 viewBox="0 0 362.5 466.2" style="enable-background:new 0 0 362.5 466.2;" xml:space="preserve">
<style type="text/css">
	.st0{fill:url(#SVGID_1_);}
	.st1{fill:url(#SVGID_2_);}
	.st2{fill:#FFFFFF;}
</style>
<g id="Lager_1">
	<g>
		<g>
			<path d="M277,393.5h-89.9V8.2h169.1l0,97.7h-53.7l53.7,53.7v154.5L277,393.5z"/>
		</g>
	</g>
	<g>
		<g>
			<path d="M175.5,393.5H85.5L6.3,314.1V159.6L60,105.9H6.3l0-97.7h169.1V393.5z"/>
		</g>
	</g>
</g>
<g id="toning">
	<radialGradient id="SVGID_1_" cx="180.5614" cy="232.5734" r="237.8323" gradientUnits="userSpaceOnUse">
		<stop  offset="0.4" style="stop-color:#E4032B"/>
		<stop  offset="0.5373" style="stop-color:#D70728"/>
		<stop  offset="0.8125" style="stop-color:#B60C21"/>
		<stop  offset="1" style="stop-color:#9D0E1A"/>
	</radialGradient>
	<polygon class="st0" points="19.3,19.8 19.5,92.2 92,92.2 19.3,163.8 19.3,307.8 91.3,379.8 163.3,379.8 163.3,19.8 	"/>
	<radialGradient id="SVGID_2_" cx="180.5609" cy="232.5734" r="238.8717" gradientUnits="userSpaceOnUse">
		<stop  offset="0.4" style="stop-color:#E4032B"/>
		<stop  offset="0.5373" style="stop-color:#D70728"/>
		<stop  offset="0.8125" style="stop-color:#B60C21"/>
		<stop  offset="1" style="stop-color:#9D0E1A"/>
	</radialGradient>
	<polygon class="st1" points="343.3,19.8 343.1,92.2 270.5,92.2 343.3,163.8 343.3,307.8 271.3,379.8 199.3,379.8 199.3,19.8 	"/>
</g>
<g id="Vit_ram">
	<path class="st2" d="M274.1,386.5h-80V15.2h155.3v83.7h-63.7l63.7,63.6v148.7L274.1,386.5z M205.4,375.2h64l68.7-68.7V167.2
		l-79.8-79.6h79.8V26.5H205.4V375.2z"/>
	<path class="st2" d="M168.5,386.5h-80l-75.3-75.3V162.5l63.7-63.6H13.1V15.2h155.3V386.5z M93.1,375.2h64V26.5H24.5v61.1h79.8
		l-79.8,79.6v139.3L93.1,375.2z"/>
	<rect x="26.4" y="379.6" class="st2" width="313" height="66"/>
	<path d="M56.2,395c-14.4,0-23.5,10.9-23.5,24.6c0,13.1,8.1,24.1,22.7,24.1c14.6,0,23.7-9.7,23.7-24.8C79.1,406.3,71.4,395,56.2,395
		z M48.5,393.3c2.9,0,5.2-2.5,5.2-5.4c0-3-2.3-5.3-5.2-5.3c-3.1,0-5.5,2.3-5.5,5.3C43,390.9,45.4,393.3,48.5,393.3L48.5,393.3z
		 M56,405c6.1,0,9.7,6.2,9.7,14.3c0,8.5-3.6,14.4-9.7,14.4c-6.1,0-9.9-5.5-9.9-14.3C46.1,410.8,50,405,56,405z M63.6,393.3
		c2.9,0,5.2-2.5,5.2-5.4c0-3-2.3-5.3-5.2-5.3c-3.1,0-5.4,2.3-5.4,5.3C58.2,390.9,60.5,393.3,63.6,393.3L63.6,393.3z M92.1,443h12.5
		v-17.7h2c3.9,0,5.7,1.2,6.9,6.9c1.4,5.8,2.6,9.4,3.3,10.8h12.9c-0.9-1.8-2.5-8.7-3.9-13.5c-1.2-4.1-2.9-7.1-6-8.4v-0.3
		c3.7-1.3,8.1-5.5,8.1-11.4c0-4.6-1.7-8-4.7-10.3c-3.6-2.7-8.8-3.6-16-3.6c-6.3,0-11.7,0.4-15.3,1V443z M104.6,405
		c0.6-0.1,1.9-0.3,4.3-0.3c4.2,0.1,6.5,2,6.5,5.6c0,3.5-2.7,5.9-7.5,5.9h-3.3V405z M171.5,413.7h-16.9v-7.6h18v-10.3h-30.7V443h31.6
		v-10.4h-19v-8.7h16.9V413.7z M187.3,442.7c2.6,0.4,6.7,0.8,12.5,0.8c10.1,0,16-1.6,19.5-4.3c3.2-2.4,5.2-5.9,5.2-10.3
		c0-5.6-3.4-9.9-9.2-11.5v-0.1c5.5-2.1,7.7-6,7.7-9.9c0-4.5-2.7-8-6.4-9.7c-3.7-1.9-7.7-2.3-14.4-2.3c-5.8,0-12,0.5-14.9,1V442.7z
		 M199.8,404.7c0.8-0.1,2-0.3,4.1-0.3c4.3,0,6.4,1.8,6.4,4.5c0,3-2.6,4.9-8,4.9h-2.5V404.7z M199.8,422.9h3c4.8,0,8.4,1.5,8.4,5.5
		c0,4.1-3.6,5.8-7.8,5.8c-1.6,0-2.7,0-3.6-0.1V422.9z M237.7,443h12.5v-17.7h2c3.9,0,5.7,1.2,6.9,6.9c1.4,5.8,2.6,9.4,3.3,10.8h12.9
		c-0.9-1.8-2.4-8.7-3.9-13.5c-1.2-4.1-2.9-7.1-6-8.4v-0.3c3.7-1.3,8.1-5.5,8.1-11.4c0-4.6-1.7-8-4.7-10.3c-3.6-2.7-8.8-3.6-16-3.6
		c-6.3,0-11.7,0.4-15.3,1V443z M250.2,405c0.6-0.1,1.9-0.3,4.3-0.3c4.2,0.1,6.5,2,6.5,5.6c0,3.5-2.7,5.9-7.5,5.9h-3.3V405z
		 M308.1,395c-14.4,0-23.5,10.9-23.5,24.6c0,13.1,8,24.1,22.7,24.1c14.6,0,23.7-9.7,23.7-24.8C331,406.3,323.3,395,308.1,395z
		 M307.9,405c6.1,0,9.7,6.2,9.7,14.3c0,8.5-3.6,14.4-9.7,14.4c-6.1,0-9.9-5.5-9.9-14.3C298,410.8,301.8,405,307.9,405z M356.2,458.1
		H6.3v-83h349.9V458.1z"/>
</g>
</svg>
