<?xml version="1.0" encoding="utf-8"?>
<!-- Generator: Adobe Illustrator 24.0.1, SVG Export Plug-In . SVG Version: 6.00 Build 0)  -->
<svg version="1.1" xmlns="http://www.w3.org/2000/svg" xmlns:xlink="http://www.w3.org/1999/xlink" x="0px" y="0px"
	 viewBox="0 0 525.1 562.2" style="enable-background:new 0 0 525.1 562.2;" xml:space="preserve">
<style type="text/css">
	.st0{fill:#FFFFFF;}
	.st1{fill:#E30613;}
	.st2{fill:none;}
	.st3{fill:#FFED00;}
	.st4{fill:#D4D4D4;}
</style>
<g id="Hök_original">
	<g>
		<polygon points="155.8,50.8 169.3,50.8 169.3,45.1 165.8,45.1 165.8,30.3 175.5,50.8 185.4,30.3 185.4,45.1 182.5,45.1 
			182.5,50.8 194.9,50.8 194.9,45 192.5,45 192.5,19.3 194.7,19.3 194.7,13.4 186.5,13.4 175.8,35.9 165.2,13.4 155.8,13.4 
			155.8,19.2 159.6,19.2 159.6,45.1 155.8,45.1 		"/>
		<polygon points="259,50.8 272.5,50.8 272.5,45.1 269,45.1 269,30.3 278.8,50.8 288.7,30.3 288.7,45.1 285.7,45.1 285.7,50.8 
			298.1,50.8 298.1,45 295.8,45 295.8,19.3 298,19.3 298,13.4 289.8,13.4 279.1,35.9 268.4,13.4 259,13.4 259,19.2 262.8,19.2 
			262.8,45.1 259,45.1 		"/>
		<path d="M198.2,45h2.5l10-31.7h4.6l10,31.7h2.6v5.7h-12.6V45h3.9l-0.9-2.8h-10.6l-0.9,2.9h3.8v5.8h-12.5L198.2,45z M209.6,36.6
			h6.9l-3.5-11.2L209.6,36.6z"/>
		<polygon points="231.4,50.8 255.6,50.8 255.6,36.3 249.3,36.3 249.3,45 240.9,45 240.9,19.3 244.1,19.3 244.1,13.4 231.4,13.4 
			231.4,19.3 234.5,19.3 234.5,45.1 231.4,45.1 		"/>
		<g>
			<rect x="305.3" y="5.4" width="5" height="5"/>
			<rect x="314.7" y="5.4" width="5" height="5"/>
			<path d="M301.5,47.3V17l4.5-3.6H319l4.4,3.8v30.2l-4.4,3.4h-13.1L301.5,47.3z M316.6,19.3h-8.2v25.8h8.2V19.3z"/>
		</g>
	</g>
</g>
<g id="Sköld">
	<path class="st0" d="M439.7,200.4c-3.1-21.5,2.3-37.6,16.6-49.3l23.5-19.1L343.3,48l-11.4,7.4c-19.5,12.7-61,18.5-91.3,18.5h-1.2
		c-30.3,0-71.8-5.8-91.3-18.5L136.5,48l-1.9,1.2L0,132l23.5,19.1c14.3,11.6,19.8,27.8,16.6,49.3c-2.1,14.5-8.1,31.2-17.5,48.3
		C8.7,274.1,1.1,302.4,1.1,328.3c0,40.8,14.2,78.9,41.1,110.3c24,28,56.7,48.7,92.1,58.2c66.5,17.8,81,30.4,91.6,39.6l14.1,12.3
		l14.1-12.3c10.6-9.2,25.1-21.8,91.6-39.6c35.4-9.5,68.1-30.1,92.1-58.2c26.9-31.4,41.1-69.5,41.1-110.3c0-25.9-7.7-54.1-21.6-79.6
		C447.8,231.6,441.8,214.9,439.7,200.4z"/>
	<path d="M333.8,58.4c-20.1,13.1-62.5,19.1-93.3,19.1h-1.2c-30.8,0-73.1-6-93.3-19.1l-9.6-6.2L6,132.4l19.7,16
		c15.3,12.5,21.2,29.7,17.9,52.5c-2.2,14.9-8.3,32-17.9,49.5C12.1,275.3,4.6,303,4.6,328.3c0,39.9,13.9,77.3,40.2,108
		c23.6,27.5,55.6,47.8,90.3,57c67.3,18,82.1,30.9,93,40.3l11.8,10.3l11.8-10.3c10.9-9.4,25.7-22.4,93-40.3
		c34.7-9.3,66.8-29.5,90.3-57c26.3-30.7,40.2-68.1,40.2-108c0-25.3-7.5-53-21.2-77.9c-9.5-17.4-15.7-34.5-17.9-49.5
		c-3.3-22.8,2.6-40,17.9-52.5l19.7-16L343.3,52.1L333.8,58.4z"/>
	<path d="M411.6,188.9c0-21.5,7.3-39.4,21.7-53.6c-11-6.8-84.5-52-89.7-55.2c-26.5,15.5-71.6,21.1-103,21.1h-1.2
		c-31.5,0-76.5-5.6-103-21.1c-5.2,3.2-78.7,48.4-89.7,55.2c14.4,14.2,21.7,32.1,21.7,53.6c0,4.9-0.4,10.1-1.2,15.4
		c-2.2,15.4-7.7,31.9-16.2,49c17.5,0,360.4,0,378,0c-8.5-17.1-13.9-33.6-16.2-49C412,199,411.6,193.9,411.6,188.9z"/>
	<path class="st1" d="M447.6,264.7H32.2c-7,14.8-15.3,37.8-15.3,63.5c0,37,12.9,71.5,37.3,100c22,25.7,51.8,44.5,84.2,53.2
		c70,18.7,86.1,32.7,97.9,42.9l3.8,3.3l3.8-3.3c11.8-10.2,27.9-24.2,97.9-42.9c32.3-8.6,62.2-27.5,84.2-53.2
		c24.4-28.5,37.3-63.1,37.3-100C463,302.5,454.7,279.5,447.6,264.7z"/>
	<path class="st0" d="M443.3,256.3c-16.2-29.7-37.5-84.4,3-117.4l6.3-5.1L343.5,66.7l-3,2c-22.4,14.6-66.3,21.1-100,21.1h-1.2
		c-33.6,0-77.6-6.5-100-21.1l-3-2L27.2,133.8l6.3,5.1c40.5,32.9,19.3,87.7,3,117.4c-1.3,2.4-2.8,5.2-4.3,8.5h415.4
		C446.1,261.5,444.6,258.6,443.3,256.3z M50.9,253.3c8.5-17.1,13.9-33.6,16.2-49c0.8-5.3,1.2-10.4,1.2-15.4
		c0-21.5-7.3-39.4-21.7-53.6c11-6.8,84.5-52,89.7-55.2c26.5,15.5,71.6,21.1,103,21.1h1.2c31.5,0,76.5-5.6,103-21.1
		c5.2,3.2,78.7,48.4,89.7,55.2c-14.4,14.2-21.7,32.1-21.7,53.6c0,4.9,0.4,10.1,1.2,15.4c2.2,15.4,7.7,31.9,16.2,49
		C411.4,253.3,68.4,253.3,50.9,253.3z"/>
	<g>
		<path class="st2" d="M101.5,137.7c0,0-5.2,0.5-5.2,0.5v25.7l4.4-1.7c4.9-2.3,5.5-8.2,5.5-13.7c0-1.3-0.1-7.7-2.6-10
			C103,137.9,102.3,137.6,101.5,137.7z"/>
		<path class="st1" d="M387,167l-3.1-4.4c-4.3-5.9-7.7-10.5-7.6-17.4c0-3.3,0.9-5.9,2.4-7.1c0.8-0.6,1.7-0.8,2.7-0.5
			c3.8,1,6.5,7.7,7.1,18c0.5,0.1,7.4,2.4,8.3,2.7c0-1.1,0.2-35.8,0.3-36.6c-0.7,0-7.6,0-8.3,0c0,0.8-0.2,11.7-0.2,11.7l0,0
			c-1.7-8.3-5.6-12.2-9.1-12.8c-1.9-0.3-4,0.4-5.8,1.9c-2.6,2.2-7,8-7.1,22.5c-0.1,16,5.6,23.9,11.1,31.5c5.1,7.1,9.9,13.7,9.9,26.1
			c0,4.5-1.2,7.8-3.1,8.9c-0.9,0.5-1.9,0.4-2.9-0.2c-4.1-2.6-7-11.8-7-22.2c0-0.3,0-0.5,0-0.8c-0.4-0.2-5.6-3-6.6-3.6
			c0,1.3-0.2,31.9-0.2,32.3c0.3,0.2,5.5,4.1,6.5,4.9c0-1.4,0.1-9.4,0.1-9.4l0,0c0.1,0.1,3.7,12.7,9.9,18.1c1.1,1,4.3,2.7,7.5,1.2
			c3.2-1.6,7-7.1,7.1-24.2C398.9,187.2,392.9,175.6,387,167z"/>
		<path class="st1" d="M114.1,175.3c0-6.7-5.4-7.5-5.7-7.5l-1.1-0.2l0.9-0.6c5.6-3.7,6.7-10.2,6.7-20.2c0-15.3-4.4-25.2-11.3-25.2
			c0,0-22,0-22.8,0c0,0.8,0,17.7,0,18.5c0.8-0.1,5.8-0.7,5.8-0.7v74.8c0,0-3.3,2.6-3.6,2.8c0,0.4,0,17.3,0,19.1
			c5-5.2,10.6-10.3,16.7-14.9c0-0.4,0-14.6,0-16c-0.9,0.5-3.6,2.3-3.6,2.3v-29.6c0,0,3.5-1.4,3.5-1.4c0.1,0,2.7-0.9,4.4,0.4
			c1,0.7,1.5,1.9,1.5,3.5c0.2,0.8,0.2,5.3,0.2,11c0,8.7-0.1,20.1-0.2,25.5c3.8-2.7,7.9-5.3,12.1-7.8c0-0.4,0-12.6,0-13.8
			c-0.8,0.4-3.6,1.8-3.6,1.8L114.1,175.3z M100.7,162.2l-4.4,1.7v-25.7c0,0,5.2-0.5,5.2-0.5c0.8-0.1,1.5,0.2,2.1,0.8
			c2.5,2.3,2.6,8.7,2.6,10C106.2,154,105.6,159.9,100.7,162.2z"/>
		<path class="st1" d="M121,135.8c0.8-0.1,5.2-0.5,5.2-0.5v56.1c0,0-4.3,2-4.8,2.2c0,0.5,0,12.3,0,13.5c9.8-5.5,20.5-10.2,31.7-14.2
			c0-0.6,0-21.2,0-22.2c-0.9,0.2-5.9,1.4-6.4,1.5c0,0.6-0.8,11.6-0.8,11.6l-10.5,3.9v-21.6c0,0,8.4-2,9-2.1c0-0.6,0-10.8,0-11.7
			c-0.9,0.1-9,1.5-9,1.5v-19.2l10.8-0.7c0,0,0.6,10.1,0.7,10.9c0.7-0.1,5.6-0.8,6.2-0.9c0-0.7,0-21.6,0-22.4c-0.8,0-31.3,0-32.1,0
			C121,122.3,121,134.9,121,135.8z"/>
		<path class="st1" d="M190.7,129.7c-3.2-5.8-7.3-8.2-14.1-8.2c0,0-19.2,0-20,0c0,0.8,0,10.7,0,11.5c0.7,0,4.3-0.3,4.3-0.3V179
			c0,0-3.8,1.2-4.3,1.4c0,0.6,0,10.3,0,11.3c7.4-2.5,14.9-4.6,22.6-6.4c11.9-2.9,16.1-19.9,16.1-33.5
			C195.4,142.8,193.8,135.3,190.7,129.7z M176.3,175.5L176.3,175.5L176.3,175.5L176.3,175.5l-6.4,1.4v-44.6c0,0,5.9-0.1,5.9-0.1
			c2.1-0.1,4,0.6,5.6,2.1c3.3,3.2,5.1,9.7,5.1,18.9C186.5,166.2,182.9,174.1,176.3,175.5z"/>
		<polygon class="st1" points="176.3,175.5 176.3,175.5 176.3,175.5 		"/>
		<path class="st1" d="M216.5,130.6c0.7,0,4,0,4,0v13.3l-11.5,0.5v-13.6c0,0,3.3-0.1,4-0.1c0-0.7,0-8.3,0-9c-0.8,0-17.2,0-18,0
			c0,0.7,0,8.7,0,9.5c0.7,0,4.6-0.1,4.6-0.1v40.6c0,0-4,0.6-4.6,0.7c0,0.6,0,9.1,0,10c6-1,12-1.8,18-2.3c0-0.7,0-8.9,0-9.7
			c-0.7,0.1-4,0.3-4,0.3v-17.3l11.5-0.5v17c0,0-3.3,0.2-4,0.2c0,0.7,0,8.9,0,9.7c5.7-0.4,11.4-0.7,17.2-0.8c0-0.7,0-8.9,0-9.6
			c-0.7,0-3.8,0.1-3.8,0.1v-38.9c0,0,3.9,0,4.6,0c0-0.7,0-8.2,0-8.9c-0.8,0-17.2,0-18,0C216.5,122.2,216.5,129.8,216.5,130.6z"/>
		<path class="st1" d="M263.9,130.7c0,0,3.4,0.1,4.1,0.2c0-0.8,0-8.6,0-9.3c-0.8,0-23.9,0-24.7,0c0,0.7,0,8.2,0,8.9
			c0.7,0,4.4,0.1,4.4,0.1l-7.2,38.8c0,0-2.5-0.1-3.2-0.1c0,0.8,0,8.8,0,9.6c5.3,0,10.7,0.2,16,0.5c0-0.8,0-8.9,0-9.6
			c-0.7,0-5.4-0.3-5.4-0.3l2.3-10.7h10.9l2.2,11.7c0,0-4.5-0.4-5.2-0.4c0,0.8,0,9.1,0,9.7c6.2,0.5,12.4,1.3,18.3,2.2
			c0-0.9,0-9.4,0-10c-0.6-0.1-3.4-0.5-3.4-0.5L263.9,130.7z M253,149.4c0.1-0.8,2-11.9,2.4-14.8c0.6,2.8,3.1,13.9,3.3,14.8
			C257.9,149.4,253.8,149.4,253,149.4z"/>
		<path class="st1" d="M347.1,161.8l12.3-25.4c0,0,3.5,0.4,4.2,0.4c0-0.9,0-14.4,0-15.2c-0.8,0-15,0-15.8,0c0,0.8,0,13.1,0,13.8
			c0.6,0.1,4.2,0.4,4.2,0.4l-12.3,24.8v-25.9c0,0,3.4,0.3,4.1,0.4c0-0.8,0-12.7,0-13.4c-0.8,0-14.8,0-15.5,0c0,0.8,0,11.5,0,12.2
			c0.6,0.1,3.3,0.3,3.3,0.3v51.2c0,0-3.6-1.3-4.5-1.6c0,1.1,0,11.3,0,11.8c5.7,2.3,11.3,4.8,16.7,7.4c0-1.2,0-12.4,0-12.9
			c-0.5-0.2-4.1-1.6-4.1-1.6v-24.5l0,0l11.9,29.6c0,0-3.7-1.7-4.6-2.1c0,1.2,0,12.7,0,13.1c6,3.1,11.8,6.5,17.4,10.2
			c0-1.3,0-14.3,0-14.8c-0.4-0.2-3.1-1.7-3.1-1.7L347.1,161.8z"/>
		<path class="st1" d="M310.6,132.6c0.6,0,3.6,0.2,3.6,0.2l-6.3,34.4l-0.5-2.2l-5.9-32.9c0,0,2.8,0.1,3.4,0.2c0-0.8,0-9.9,0-10.7
			c-0.8,0-11.9,0-12.6,0c0,0.7,0,9.4,0,10.1c0.6,0,3.5,0.2,3.5,0.2l-6.1,32.2l-0.4-2.2l-6.1-30.5c0,0,3.1,0.1,3.8,0.1
			c0-0.8,0-9.1,0-9.8c-0.8,0-14.6,0-15.4,0c0,0.7,0,8.7,0,9.4c0.6,0,3.3,0.1,3.3,0.1s10.5,51.8,10.7,52.4c0.5,0.1,5.7,1.2,6.4,1.3
			c0.2-0.8,6.1-30.5,6.1-30.5l0,0c0,0,6,33.1,6.1,33.6c0.5,0.1,6.7,2,7.5,2.2c0.2-0.9,9.6-56.8,9.6-56.8s2.6,0.2,3.2,0.2
			c0-0.8,0-11.2,0-11.9c-0.8,0-13.2,0-13.9,0C310.6,122.3,310.6,131.9,310.6,132.6z"/>
	</g>
</g>
<g id="Lager_7">
	<path class="st0" d="M245.3,202.2c19.5-6.2,34.2-4.1,44.1-2.2c16.2,3.1,23.4,9.8,23.4,9.8l-0.1,1.5c0,0,7.1,1.5,10.8,3.1
		c4.5,1.9,11.7,5.9,16.1,8.5c4.4,2.6,12.5,8.5,12.5,8.5l0.7,3.9c0,0,3.9,1.5,18.4,10.9c19,12.3,33,34,33,34l-1.3,1.7
		c0,0,8.8,10.7,18,22c12.9,15.8,13.2,22,13.2,22s3.7,1.2,6.5,4.1c3.5,3.6,4.8,8.6,4.8,8.6s2.4,1.8,4.5,4.8c1.9,2.6,1.9,5.8,1.9,5.8
		s1.6-0.2,1.4-0.3c0,0,1,1.8,2,3.1c1,1.3,2.9,2.3,3.6,3.4c2,3.6,0.1,3.1,2.2,8.8c2.2,6.2,11.4,18.5,11.4,18.5l-24.9,66.7
		c0,0-58.2,23.3-71.6,18.5c-6.7-2.4-9.6-9.5-9.6-9.5c-3.2,2.5-14.6,5.1-14.6,5.1s-1.7,3.9-10.1,3.9c-5.6,0-16.9,1.5-24.3,3.6
		c-11.1,3.1-16.1,4.9-23.4,8.2s-24.3,10.8-25,12.4c-2.9,7.4-11.4,7.4-11.4,7.4l-37,0c0,0-7.2-1.5-10.1-6.4c0,0-11.7-6.3-18.2-9.3
		c-23-10.6-37.1-13-50.1-14.2c-13-1.1-15.2-4.5-15.2-4.5c-13.5-2.3-29.9-12.2-29.9-12.2c-2.7-1.6-6.1-4.9-6.5-5.3l-2.9-2.8
		c0,0,0,0,0,0c-0.9-0.2-1.8-0.4-1.8-0.4s0-3.9,0-3.9c-3.5-1.3-13.4-6.7-13.4-6.7l1.8-3.8c0,0,0-0.1,0.1-0.1
		c-2.8-1.5-8.7-6.4-8.7-6.4l2.1-3.8c0.2-0.2,0.3-0.3,0.5-0.5c-6.3-4.3-14.9-15.6-18.1-39.9l3.6-0.1c-1.7-4.7-3.8-10.1-4.3-18.2
		c-0.2-3.7-1.3-9.6,2.1-22.6l3,1.3c0.4-4.4,1.3-11.8,3.1-17.1c5.1-15.3,15.2-29.3,23.6-32.7l0.6-0.2c0,0,1-0.1,1.1-0.1
		c-0.6-2.5-1.7-7.2-1.7-7.2l24.7-29.5l0.6-0.4c0.6-0.4,15.7-10,30.9-15.5l1-0.4c0,0,2,0.3,2.8,0.4c1.2-3.7,3.6-11.2,3.6-11.2
		l36.2-16.2c0,0,5.2,1.1,8.6,1.7c0.6-2.5,1.9-7.7,1.9-7.7l11.7-2.9l11.3,6.6C212.9,207.1,236.8,204.9,245.3,202.2z"/>
	<path d="M453.7,497.7c0,0.1,0,0.1,0,0.2c0,0,0,0,0,0L453.7,497.7z"/>
	<path d="M335.4,248.6c0,0,0.1,0.1,0.1,0.1c0,0,0,0,0,0L335.4,248.6z"/>
	<path d="M225.1,210.3C225.1,210.3,225.1,210.3,225.1,210.3c0.1-0.1,0.1-0.1,0.1-0.1L225.1,210.3z"/>
	<path d="M381.5,304.6c0,0.1,0.1,0.1,0.1,0.2c0,0,0.1,0.1,0.1,0.1L381.5,304.6z"/>
	<path d="M399.7,336.9c-0.1-0.1-0.1-0.2-0.2-0.3c-0.1-0.1-0.1-0.1-0.1-0.1L399.7,336.9z"/>
	<path class="st0" d="M379.9,306.2C379.9,306.2,379.9,306.3,379.9,306.2L379.9,306.2C379.9,306.2,379.9,306.2,379.9,306.2z"/>
	<path d="M230.7,232.5l-0.2-6.1l-2.2-0.2c-0.4,0-0.7-0.1-1-0.1c0.1,0.9,0.1,1.8,0.2,2.5c0.2,0,0.3,0,0.5,0.1c0,0.7,0,1,0,1.7
		c-0.1,0-0.3,0-0.4,0.1c0.1,0.3,0.3,1.2,0.6,2.4C229.4,232.7,230.7,232.5,230.7,232.5z"/>
	<path class="st0" d="M463,511.8c-0.2-2.8-0.8-5.8-1.3-8.7c-0.4-2.2-0.8-4.4-1-6.3l0-0.1l0-0.1c-5-30.9-11.3-54.1-19.3-70.8
		l-0.1-0.2c0,0-0.4-0.6-0.7-1c-0.1-0.4-0.2-0.9-0.2-0.9c-1.1-4.3-2.8-9-5.3-14.6l-4.7-9.8c0,0-1.8-3.7-2-4c0-0.1,0-0.3,0-0.3
		c0-0.1-0.6-3.7-0.6-3.7c-0.4-1.8-0.8-3.4-1.4-4.8c-1.3-3.5-3.3-6.1-5.9-7.9c0,0,0,0-0.1-0.1c-0.3-0.5-0.8-1.1-0.8-1.1l-1.4-1.4l0,0
		c0,0-0.3-0.2-0.5-0.4c0,0,0,0,0,0c0.1-0.5,0.2-1,0.1-1.6c-0.1-2.4-0.9-5.2-3.5-8.1c0,0-0.4-0.4-0.4-0.4s-0.3-0.3-0.4-0.5
		c0-0.1,0-0.1-0.1-0.2c0.2-0.8,0.4-1.6,0.4-2.7c0-1.1-0.3-2.4-0.9-3.7c0,0-1.4-2.6-1.4-2.6c0,0-0.8-1.1-1.3-1.7
		c-0.1-0.3-0.4-1.5-0.4-1.5c-0.6-2.1-1.5-4-2.9-6.2l-0.1-0.1c0,0-1.2-1.6-1.4-1.9c-0.1-0.2-0.6-1.1-0.6-1.1s-0.4-0.6-0.6-0.8
		c-0.1-0.2-0.3-0.5-0.3-0.5l-0.7-1.3c-0.7-1.1-1.5-2.1-2.6-3.1c-0.1-0.2-0.7-0.9-0.9-1.2c0.1,0.1,0.1,0.2,0.2,0.3l-0.3-0.4
		c0,0,0,0,0.1,0.1c-1.5-2.5-3.5-4.4-5.9-5.8c-0.9-4-3.5-7.5-7.2-10c0-0.1,0-0.1,0-0.2c0-0.3,0.1-0.7,0-1.1c0-1.2-0.3-2.7-0.8-4.7
		c-0.2-3.9-1.6-7.3-4.1-10c-1.2-1.6-2.7-2.9-4.4-4.1c0.4-1,0.7-2,0.8-3.1l0.3-3l-1.6-2.5c-2.6-4.2-7.9-9.8-14.6-12.5
		c-0.2-0.4-0.4-0.8-0.4-0.8l-0.7-1.5c0,0-0.5-0.9-0.5-0.9l-0.3-0.6l-1.3-1.1c-0.7-0.6-1.3-1.3-2.1-2.3l-1.6-2.3l-1.2-1.7
		c-2.3-3.4-5.5-7.1-11-9.8c-0.7-0.5-1.3-1.2-2.3-2.7c0,0-0.7-1.1-0.7-1.1l-1.5-2.2c-1-1.5-2.1-2.7-3.1-3.8c-1.7-2-3.8-3.7-6-5.2
		c0-0.1,0.1-0.3,0.1-0.4c-0.1-2.2-1.1-4.4-3-6.3c-0.1-0.3-0.2-1-0.2-1L324,234c-3-2.5-5.9-5.2-9.1-8c-3.2-2.9-6.4-5.8-9.8-8.7
		c-4.2-3.5-10.3-8.3-17.5-12.2c-2-1.6-4.3-1.1-6.6-2.1c0,0,0,0,0,0c-2.3-1.3,0.6,2.6-2.1,1.8c-7.3-3.4-16.1-2.5-26-0.1
		c0,0-0.1-0.1-0.1-0.1l-3.9,2.5c0,0-6.6-10.1-6.9-9.9c-10.8-12.8-21.5-24.8-32.8-36.4l-0.1-0.1l-19.8-15.7l1.6,4.2l10.3,27.6
		l0.8,0.8c0,0,7.5,7.6,7.5,7.6c7.1,7.2,12.8,15.7,19.5,22.1c-1,0.7-3,2.2-3.9,3.2c-0.9,0.9-1.9,2-2.6,3.1c-2.1,3.1-2.7,6-2.6,8.2
		c0,0.5,0.1,0.9,0.1,1.3l0,0l0,0.3c0-0.1,0-0.2,0-0.2l0.7,8.8l2.5,9.3l0.3,0.4c1,1.6,3.1,5.9,5.3,10.4l2.8,5.6
		c3.1,6.1,6.5,12.8,9.1,16.4c1,2.4,2.6,5.7,4.4,8.8c2.9,4.9,6,8.1,9.4,9.9l-0.1-0.1c0,0,3.3,1.9,4.7,2.7c1.1,2.6,3.5,8.1,5.1,10.1
		c1.3,1.6,2.7,3.1,4.1,4.5l0.7,0.7c2.8,2.9,3.9,4.5,4.1,5.7l0.1,0.6l0.3,0.5c0.5,0.8,4.9,7.8,7,10.4c2.6,3.1,5.1,5.6,7.9,7.7
		c0.1,0.1,0.2,0.3,0.4,0.8c0.4,1,0.7,2.1,1,3.3l0.2,0.8c0.5,1.7,1.1,4.2,2.4,6.7c1.3,2.6,6,6.5,7.4,7.7l2.8,2.3c0,0,0.8-1.1,1.5-2
		c0.8,3.6,1.7,7.5,1.7,7.5l0.1,0.3c1.4,3,3.7,4.2,4.5,4.6c0,0,1.6,0.8,2.4,1.1c1.5,1.4,3.1,2.9,3.9,3.9c-0.1,0.5-0.6,2.7-0.6,2.7
		l2.5,3.3c0.3,0.4,2.9,3.8,5.6,5.2l0.2,0.1l0.2,0.1c0.3,0.1,0.8,0.2,1.2,0.3c0.9,3.7,2.9,10.7,5.1,13.9c1.5,2.2,3.2,4.2,4.9,6.2
		c0,0,3.3,4.1,3.5,4.3c0.9,1.7,2,3.1,2.8,4c0,0,1.9,2.1,1.9,2.1l1.1,1.2c1.6,1.8,1.9,2.4,1.9,2.5l0-0.1l0.1,0.8l0.5,0.9
		c0,0,4.8,6.8,5.2,7.3c0.2,0.5,2.8,6.6,2.8,6.6l0.3,0.4l1.3,1.8c0,0,1.5,3,1.5,3l0.3,0.6l1.1,2.4c1.4,2.8,4.5,4.8,6.3,5.8
		c0.5,1.2,1.3,3,1.3,3c2.7,6,5.6,12.3,8.8,18.7c0,0,4.3,8.3,4.3,8.3l23.3,36.8c10.4,16.2,19.6,28.8,28.8,39.6
		c3,3.3,7.8,7.7,15.2,7.5h0l1.3,0l1.2-0.4c3.9-1.3,6.8-4.4,8.2-8.8c0,0,0.6-2.6,0.6-2.6l0.6-2.5c0,0,1.5-9.3,1.5-9.4
		c1.2-4.3,1.4-8.7,1.4-12.4l0.2-4.8c0.1-2.1,0.2-4.3,0.2-6.5C463.1,513.4,463,512.6,463,511.8z M380,306.3
		C379.9,306.3,379.9,306.2,380,306.3C379.9,306.2,379.9,306.2,380,306.3L380,306.3z"/>
	<path d="M463,511.8c-0.2-2.8-0.8-5.8-1.3-8.7c-0.4-2.2-0.8-4.4-1-6.3l0-0.1l0-0.1c-5-30.9-11.3-54.1-19.3-70.8l-0.1-0.2
		c0,0-0.4-0.6-0.7-1c-0.1-0.4-0.2-0.9-0.2-0.9c-1.1-4.3-2.8-9-5.3-14.6l-4.7-9.8c0,0-1.8-3.7-2-4c0-0.1,0-0.3,0-0.3
		c0-0.1-0.6-3.7-0.6-3.7c-0.4-1.8-0.8-3.4-1.4-4.8c-1.3-3.5-3.3-6.1-5.9-7.9c0,0,0,0-0.1-0.1c-0.3-0.5-0.8-1.1-0.8-1.1l-1.4-1.4l0,0
		c0,0-0.3-0.2-0.5-0.4c0,0,0,0,0,0c0.1-0.5,0.2-1,0.1-1.6c-0.1-2.4-0.9-5.2-3.5-8.1c0,0-0.4-0.4-0.4-0.4s-0.3-0.3-0.4-0.5
		c0-0.1,0-0.1-0.1-0.2c0.2-0.8,0.4-1.6,0.4-2.7c0-1.1-0.3-2.4-0.9-3.7c0,0-1.4-2.6-1.4-2.6c0,0-0.8-1.1-1.3-1.7
		c-0.1-0.3-0.4-1.5-0.4-1.5c-0.6-2.1-1.5-4-2.9-6.2l-0.1-0.1c0,0-1.2-1.6-1.4-1.9c-0.1-0.2-0.6-1.1-0.6-1.1s-0.4-0.6-0.6-0.8
		c-0.1-0.2-0.3-0.5-0.3-0.5l-0.7-1.3c-0.7-1.1-1.5-2.1-2.6-3.1c-0.1-0.2-0.7-0.9-0.9-1.2c0.1,0.1,0.1,0.2,0.2,0.3l-0.3-0.4
		c0,0,0,0,0.1,0.1c-1.5-2.5-3.5-4.4-5.9-5.8c-0.9-4-3.5-7.5-7.2-10c0-0.1,0-0.1,0-0.2c0-0.3,0.1-0.7,0-1.1c0-1.2-0.3-2.7-0.8-4.7
		c-0.2-3.9-1.6-7.3-4.1-10c-1.2-1.6-2.7-2.9-4.4-4.1c0.4-1,0.7-2,0.8-3.1l0.3-3l-1.6-2.5c-2.6-4.2-7.9-9.8-14.6-12.5
		c-0.2-0.4-0.4-0.8-0.4-0.8l-0.7-1.5c0,0-0.5-0.9-0.5-0.9l-0.3-0.6l-1.3-1.1c-0.7-0.6-1.3-1.3-2.1-2.3l-1.6-2.3l-1.2-1.7
		c-2.3-3.4-5.5-7.1-11-9.8c-0.7-0.5-1.3-1.2-2.3-2.7c0,0-0.7-1.1-0.7-1.1l-1.5-2.2c-1-1.5-2.1-2.7-3.1-3.8c-1.7-2-4.7,1-6.9-0.5
		c0-0.1,0.9-4.9,0.9-5.1c-0.1-2.2-1.1-4.4-3-6.3c-0.1-0.3-0.2-1-0.2-1L324,234c-3-2.5-5.9-5.2-9.1-8c-3.2-2.9-6.4-5.8-9.8-8.7
		c-4.2-3.5-10.3-8.3-17.5-12.2c-2-1.6-2.1,0.4-4.4-0.6c0,0-4.2-0.7-4.2-0.7c-2.3-1.3-6.2,0.1-8.9-0.7c-9-0.4-7.4-0.8-17.3,1.6
		c0,0-3.8,1.3-3.8,1.3l-6.9-8.9l0,0c-10.8-12.8-21.7-24.8-32.9-36.4l-0.1-0.1l-19.8-15.7l1.6,4.2l10.3,27.6l0.8,0.8
		c0,0,7.5,7.6,7.5,7.6c7.1,7.2,12.8,15.7,19.5,22.1c-1,0.7-3,2.2-3.9,3.2c-0.9,0.9-1.9,2-2.6,3.1c-2.1,3.1-2.7,6-2.6,8.2
		c0,0.5,0.1,0.9,0.1,1.3l0,0l0,0.3c0-0.1,0-0.2,0-0.2l0.7,8.8l2.5,9.3l0.3,0.4c1,1.6,3.1,5.9,5.3,10.4l2.8,5.6
		c3.1,6.1,6.5,12.8,9.1,16.4c1,2.4,2.6,5.7,4.4,8.8c2.9,4.9,6,8.1,9.4,9.9l-0.1-0.1c0,0,3.3,1.9,4.7,2.7c1.1,2.6,3.5,8.1,5.1,10.1
		c1.3,1.6,2.7,3.1,4.1,4.5l0.7,0.7c2.8,2.9,3.9,4.5,4.1,5.7l0.1,0.6l0.3,0.5c0.5,0.8,4.9,7.8,7,10.4c2.6,3.1,5.1,5.6,7.9,7.7
		c0.1,0.1,0.2,0.3,0.4,0.8c0.4,1,0.7,2.1,1,3.3l0.2,0.8c0.5,1.7,1.1,4.2,2.4,6.7c1.3,2.6,6,6.5,7.4,7.7l2.8,2.3c0,0,0.8-1.1,1.5-2
		c0.8,3.6,1.7,7.5,1.7,7.5l0.1,0.3c1.4,3,3.7,4.2,4.5,4.6c0,0,1.6,0.8,2.4,1.1c1.5,1.4,3.1,2.9,3.9,3.9c-0.1,0.5-0.6,2.7-0.6,2.7
		l2.5,3.3c0.3,0.4,2.9,3.8,5.6,5.2l0.2,0.1l0.2,0.1c0.3,0.1,0.8,0.2,1.2,0.3c0.9,3.7,2.9,10.7,5.1,13.9c1.5,2.2,3.2,4.2,4.9,6.2
		c0,0,3.3,4.1,3.5,4.3c0.9,1.7,2,3.1,2.8,4c0,0,1.9,2.1,1.9,2.1l1.1,1.2c1.6,1.8,1.9,2.4,1.9,2.5l0-0.1l0.1,0.8l0.5,0.9
		c0,0,4.8,6.8,5.2,7.3c0.2,0.5,2.8,6.6,2.8,6.6l0.3,0.4l1.3,1.8c0,0,1.5,3,1.5,3l0.3,0.6l1.1,2.4c1.4,2.8,4.5,4.8,6.3,5.8
		c0.5,1.2,1.3,3,1.3,3c3.1,6.8,5.5,12.3,8.8,18.7c0,0,4.3,8.3,4.3,8.3l23.3,36.8c10.4,16.2,19.6,28.8,28.8,39.6
		c3,3.3,7.8,7.7,15.2,7.5h0l1.3,0l1.2-0.4c3.9-1.3,6.8-4.4,8.2-8.8c0,0,0.6-2.6,0.6-2.6l0.6-2.5c0,0,1.5-9.3,1.5-9.4
		c1.2-4.3,1.4-8.7,1.4-12.4l0.2-4.8c0.1-2.1,0.2-4.3,0.2-6.5C463.1,513.4,463,512.6,463,511.8z M456.9,520.4c0,0-0.2,5-0.2,5
		c0,3.6-0.2,7.4-1.2,11.2l0,0.1l0,0.1c0,0-1.5,9.5-1.5,9.5c0,0-1,4.3-1,4.3c-0.8,2.5-2.2,4.1-4.4,4.8l0.4-0.1c0,0-0.5,0.1-0.7,0.2
		c-0.2,0-0.4,0-0.4,0c-3.9,0.1-7.1-1.6-10.6-5.5c-9.1-10.5-18-22.9-28.3-38.9l-23.2-36.6c0,0,0,0.1,0.1,0.2
		c-0.3-0.6-1.2-2.3-4.2-8.2c-3.2-6.2-6-12.4-8.7-18.4c0,0-2.1-4.5-2.1-4.5c0,0-0.6-1.4-0.6-1.4l-2-0.1c-0.7,0-2-1-3-3
		c0,0-1.1-2.2-1.1-2.2c0,0-0.3-0.6-0.3-0.6s0,0.1,0,0.1c-0.1-0.4-0.5-1.2-1.6-3.4c0-0.1-0.8-1.4-0.8-1.4l0-0.1l-0.1-0.1
		c0,0-0.4-0.5-0.6-0.7c-0.1-0.2-0.2-0.4-0.2-0.4c0,0-0.7-1.8-1.3-3.1c0.3-0.1,0.6-0.1,0.6-0.1l0-1.2c-0.5-1.3-1-2.3-1-2.3l-0.2-0.2
		c0,0-1.4-2-2.8-4c-0.1-0.2-0.3-0.4-0.4-0.6c-0.6-0.9-1.2-1.6-1.5-2.1c-0.5,0.6-0.9,1.1-1,1.2c0-0.1,0-0.4,0-0.4
		c-0.2-1.7-1.1-3.4-3.4-5.8c0,0-1.2-1.3-1.2-1.3c0,0-1.8-1.9-1.8-1.9c-0.7-0.8-1.5-1.8-2.1-3.1c0,0-0.1-0.3-0.1-0.3l-3.9-4.9
		c-1.6-1.9-3.2-3.8-4.5-5.7c-3.1-4.4-4.6-8.5-4.7-12.8c0,0-0.1-3.3-0.1-3.3l-3.1-0.1c-0.4,0-0.7-0.1-1.1-0.2
		c-1.4-0.8-2.1-1.6-2.4-1.9l0.1,0.2l-1.2-1.7c0,0-0.5-0.6-0.8-1c0.2-0.7,0.5-2.1,0.5-2.1l-0.1-0.6c-0.4-1.6-1-2.6-1.9-3.8
		c0,0-1.4-1.7-1.4-1.7l-2.2-1.4c-0.1,0-1.5-0.8-1.5-0.8c-0.1,0-2.8-1.4-2.8-1.4c-0.6-0.3-1.3-0.8-1.7-1.7c0,0-0.6-1.2-0.6-1.2l0,0
		c0-0.1-0.1-0.2-0.1-0.3c-0.1-0.3-3.4-18-3.4-18s-4.7,6.2-5.8,7.7c-1.5-1.1-2.8-2.5-3.7-4.3c-1-1.9-1.6-4-2-5.5c0,0-0.2-0.8-0.2-0.8
		c-0.3-1.3-0.7-2.7-1.2-4c-0.5-1.2-1-2.1-1.7-2.8l-0.1-0.1l-0.2-0.1l-0.1-0.1c-2.5-1.8-4.8-4-7.2-6.9c-1.7-2-3.2-4.2-4.8-6.5
		c0,0-1-1.4-1.4-1.9c0-0.2-0.1-0.6-0.1-0.6c-0.6-2.9-2.4-5.3-5.7-8.7l-0.7-0.7c-1.3-1.4-2.6-2.7-3.8-4.2c-1.7-2.1-2.9-4.1-3.8-6.1
		c0,0-0.1-0.2-0.1-0.4c0-0.2,0-0.4,0-0.4c0,0,0-0.2-0.6-2.5c0-0.1-0.3-0.9-0.3-0.9l-0.2-0.5l-6.6-3.4c-2.4-1.2-4.7-3.7-7-7.6
		c-1.8-2.9-3.2-6.2-4.2-8.4l-0.1-0.3l-0.2-0.2c-2.3-3.1-5.7-9.8-8.8-15.9l-2.8-5.6c-2.4-4.8-4.5-9-5.6-10.9l0.2,0.6l-0.3-0.9
		c0,0,0-0.1-0.1-0.2c0-0.2-0.1-0.5-0.1-0.5s-0.6-2.6-1-4.3c0.3,0-1.4-11.7-1.4-11.7c0-1.5,0.5-3,1.6-4.6c0.6-0.9,7.9-6.7,7.9-6.7
		l-3.8-5.6c0,0,0,0,0,0c-6.2-7.1-28.2-29.3-28.3-29.6c0-0.1-3.7-9.8-3.7-9.8s-4.7-12.5-4.7-12.7c4.3,3.4,12.5,9.9,12.7,10
		c1.4,1.5,18.2,18.2,32,35.6c0.3,0.3,4.1,4.9,4.1,4.9l5.1,7.5c0,0,1.9-3.8,2.1-4c0.3-0.1,3.6-1.9,3.6-1.9
		c10.8-2.7,22.9-1.6,31.5,3.3l-6-4.4l0.1,0.1l0.1,0c5.2,2.2,9.7,7,14,11.5c2.4,2.6,4.7,5,7.1,7c3.3,2.8,6.5,5.7,9.6,8.5
		c3.2,2.9,6.2,5.6,9.2,8.1c0,0,0.4,0.3,0.7,0.6c0,0.2,0.2,0.8,0.2,0.8l0.7,0.6c1.1,0.9,1.8,1.9,1.8,2.8l-0.1,0.5l0.1-0.2l-0.9,2.8
		l0.9,0.5l1.5,0.8c2.4,1.3,4.3,2.9,6,4.9c1,1,1.9,2.1,2.8,3.4l1.4,2c0,0,0.7,1.1,0.7,1.1c1.3,1.9,2.4,3.3,4,4.4l0.1,0.1l0.2,0.1
		l0.1,0c4.5,2.1,7,5.1,9,8l1.1,1.6c0,0,1.7,2.5,1.7,2.5c1.1,1.5,2.1,2.5,3.1,3.4c0,0,0.2,0.2,0.4,0.3c0.1,0.2,0.2,0.5,0.2,0.5
		c0,0,0.7,1.3,0.7,1.3c0,0,0.9,1.8,0.9,1.8c0,0.1,0.6,1.1,0.6,1.1l1.1,0.4c5.3,1.9,10.2,6.7,12.6,10.5c0,0,0.3,0.4,0.5,0.8
		c0,0.4-0.1,0.9-0.1,0.9c-0.1,0.9-0.4,1.6-0.9,2.2l-2.9,3.1l3.7,2.1c2,1.1,3.6,2.5,4.9,4.2l0,0l0.1,0.1l0,0c1.7,1.8,2.6,4.1,2.7,6.9
		l0,0.3l0.1,0.3c0.2,0.6,0.6,2.5,0.7,3.5l0,0.3c0,0,0,0.2,0,0.2l0,0c0,0,0,0,0.1-0.1c-0.1,0.2-0.4,0.6-1.2,2l-0.7,1.1l3.2,1.7
		c3.1,1.7,5.3,4.3,6,7.3c0,0,0.6,2.8,0.6,2.8l1.6,0.7c1.9,0.8,3.4,2.2,4.6,4.3l0,0.1l0.1,0.1l1.3,1.7l0.2,0.1
		c0.9,0.8,1.4,1.5,1.9,2.2c0,0,0.5,0.8,0.5,0.8c0,0,0.5,0.9,0.5,0.9l0.1,0.1l0.6,0.8c0,0,0.6,1,0.6,1l0,0.1l1.5,2.1
		c1,1.6,1.7,2.9,2.1,4.3c0,0,0.2,0.7,0.2,0.7c0,0,0.4,1.6,0.4,1.6s0.2,0.3,0.2,0.3c0,0,0.2,0.4,0.2,0.4l0.1,0.1l0.2,0.2
		c0,0,1.2,1.5,1.3,1.7c0.1,0.1,0.8,1.5,0.9,1.7c0.2,0.5,0.3,1,0.4,1.5c0,0.5-0.1,0.9-0.3,1.3c0,0,0,0,0,0c-0.1,0.1-0.2,0.3-0.2,0.4
		c0,0-0.5,1.1-0.5,1.1l1.6,3.3l1.1,1.2c0,0,0.3,0.4,0.3,0.4c0.5,0.6,1.8,2,1.9,4.2c0,0.4,0,0.8-0.1,1.3l0.3-0.6l-0.7,1.9l0.3,0.3
		l1.3,2.5c0,0,1.5,1.1,1.5,1.2c0.2,0.2,0.4,0.4,0.7,0.7c0.1,0.1,0.7,1,0.7,1c0,0,0.1,0.2,0.1,0.2c0.1,0.1,0.4,0.4,0.4,0.4l0.1,0.1
		l0.2,0.1c1.7,1.1,3.1,3,4.1,5.5c0.4,1.1,0.8,2.4,1.1,3.8c0,0,0.6,3.3,0.6,3.3c0,0,0.2,1.1,0.2,1.1l0,0.2l2.4,4.8
		c0,0,4.6,9.6,4.6,9.6c2.4,5.3,4,9.6,5,13.6l0.5,1.9c0,0,0.9,1.3,1,1.5c7.7,16.2,13.9,38.8,18.8,69.1c0.2,2,0.7,4.4,1.1,6.6
		c0.5,2.7,1,5.5,1.2,8.1l0.1,2C457.1,516.4,457,518.4,456.9,520.4z"/>
	<path class="st1" d="M205.9,173.6c9.7,9.9,19.3,19.6,27.6,29.1c48.7,58.7,98.2,113.5,137.2,177.8c10.8,18.7,21.7,37.1,31.5,56.3
		c11.3,24,22.1,48.2,32.5,73c0.4,0.5,1.2,0.5,1.5,0l-0.2-2c-17.5-44-36.7-82.8-58.6-123.6c-0.7-1.3-0.9-2.6-2-3.8
		c-15-29-37-51.6-55.7-78.6c-36-46.2-71.5-93.4-113.8-137.3l-5.6-4.7L205.9,173.6z"/>
	<path class="st1" d="M437.2,512.8c0.6-0.3,1.5-1,1.5-2.9l0-0.1l0-0.1c-2.7-8.7-6-16.6-9.4-24.9l-3.6-8.7
		c-8.7-19.3-22.5-48.9-27.5-58.1c1.4,0.4,3.7,1.1,3.7,1.1c3,0.8,5.8,1.7,8.5,3l0.1,0l0.1,0c3.1,1,6.3,2.4,9.3,3.8
		c4.3,2,8.7,4,13.2,4.6c7.5,15.9,13.5,38,18.3,67.7c0.2,2.1,0.7,4.3,1.1,6.5c0.5,2.7,1,5.4,1.2,8c0.1,0.7,0.1,1.3,0.1,1.9
		c0.1,2.1-0.1,4.1-0.2,6l-0.2,4.9c0,3.3-0.2,6.9-1.1,10.2l-0.5,1.6c0,0,0.3-0.1,0.4-0.1c-0.4,2.1-1.5,8-1.5,8l0-0.1l-0.5,2
		c-0.4,2-0.8,4.1-2.6,4.8c-2.8,0-5-1.2-7.8-4.3c-17.2-20-31.6-43.9-45.5-67c0,0-6.6-11-7.3-12.1c2.6-2.9,2.7-6.5,2.7-9.7
		c0-2.5,0-4.8,1-6.7l0.1-0.2l0-0.2c0.2-3.7,0.2-7.5,0.2-11.1c0-5.8,0-11.7,0.8-17.1c10.5,19.1,18.5,37.2,26.8,56.2
		c4.5,10.3,9.2,21,14.4,32.1l0.1,0.2l0.2,0.1C434.2,512.9,436,513.4,437.2,512.8z"/>
	<path d="M373.5,406.1c1.2,5.1,3,10,1,15.2c1.8,2.8-3.5,8.8-1.8,12.1c1.2,3.6-1.8,4.7-0.1,7.9c3.7,8,7.1,15.9,11.3,24.1l0.7-3.3
		l-0.1,0.2c0.9-3,0-7.5,1.7-11.1c0.1-7.6,0.7-16.3,0.7-24.1c1.4-3.5-0.3-7.4,2.1-10.6l-13.1-23.2
		C375.6,397.6,376.5,401.8,373.5,406.1z"/>
	<path d="M520.1,502.9c0-0.1,0-0.2,0-0.2l0-0.1L520.1,502.9z"/>
	<path d="M232.5,222.3C232.5,222.3,232.5,222.3,232.5,222.3c0.1-0.1,0.1-0.1,0.1-0.1L232.5,222.3z"/>
	<polygon points="435.8,338.4 435.8,338.4 435.8,338.4 	"/>
	<path d="M517.9,502.7c0,0,0-0.1,0-0.1v0L517.9,502.7z"/>
	<path d="M231.7,234.8L231.7,234.8c0,0.1,0,0.2,0.1,0.2L231.7,234.8z"/>
	<path class="st0" d="M519.4,490.1L519.4,490.1l-0.6-4.7c-0.3-2.8-0.7-5.7-1.4-8.8c-0.7-2.9-1.7-5.9-2.7-8.8l-1.8-5.7l-0.1-0.2
		c-9.3-24.7-18.7-48.4-31.3-66.2c0-0.1-0.8-1.1-1.2-1.6c-0.1-0.1-0.1-0.3-0.1-0.3c-1.8-4.1-4.3-8.3-7.7-13.4l-6.3-8.8
		c0,0-2.1-2.9-2.2-3c0-0.1-0.2-0.3-0.4-0.6c-0.9-2.7-1.9-5.6-3.5-8.2c-1.5-2.5-3.2-4-4.5-5l-1.5-1.1l-2.6-2l-0.4-0.2
		c0,0-0.8-0.3-1-0.3c-0.1-0.2-0.4-0.6-0.5-0.7c-3.2-2.3,0.1-1.1-3.1-3.6c0-0.3-2.6-2.6-2.6-2.9c0-1.6-1.6-2.4-2.6-3.9l-0.9-1.6
		c-0.1-0.1-2.2-2.4-2.2-2.4c-0.1-0.1-2.1-3.5-2.1-3.5c0,0-5.8-4.5-5.8-4.5l-0.3-2.6c-1.9-2.6-3.7-5.2-5.3-7c-3.6-4-5.1-6.8-5.1-6.8
		c0,0-2.7-4.5-2.7-4.5c0,0-3.4-3.9-3.4-3.9s-3.4-3.2-3.4-3.2c0-0.1-3-3.2-3-3.2l-3.7-5.2c-0.9-1.8-8.4-8.5-10.3-10.1
		c-1.2-1,3.9-1,1.6-2c0.4-1.2-3.8-5.6-9.6-12.1c-3-2.8-6.7-6-8.9-8.8c-4.1-5.2-6.9-8.1-12.2-10c-0.3-0.1-4.1-2.5-6.5-4.8
		c0,0-7.1-5.5-7.1-5.5c-0.9-0.9-2.8-3.2-3.9-4.1c-1.7-1.3-2.8-3-4.8-3.6c-0.4-3-4.1-3.5-7.1-5c-8.2-4.2-9-6.3-17.3-8.4
		c-11.4-3-9.2-3.8-17.6-7.6c-12.5-5.7-32.3-9.4-45.8-4.1l-1.9-0.6l-3,2c0,0-1.7-0.9-1.7-0.9c-13.9-9.8-27.5-18.8-41.5-27.4l-0.1,0
		l-27.2-11.9l2.5,3.6l19.5,27.9l1.1,0.7l9.1,5.4c8.6,5,16.7,9.8,24.1,14.8c-0.9,0.9-1.7,1.9-2.4,2.9c-0.7,1-1.5,2.3-2.1,3.6
		c-1.1,2.5-1.5,4.7-1.4,6.5c0,1.2,0.2,2.1,0.5,3c0,0.2,0.2,1.7,0.3,2c0,0.1,0,0.3,0,0.4c0,1.3,0.4,2.4,0.7,3.1c0,0-0.2,0.1-0.2,0.1
		l2.1,4.5c0.3,0.7,1,2.2,2.2,5.2l0.5,1.4l1,1.2c0.8,1,2.5,3.1,4.1,5.3l6.6,9c4,5.5,8.6,11.5,11.7,14.5c1.4,2.1,3.5,5.1,5.8,7.9
		c3.7,4.3,7.3,6.9,11,8.1c0,0,2.7,0.8,4.5,1.4c0.1,0.2,0.2,0.5,0.2,0.5l0.3,1.2l0.7,1c1.5,2.3,3.4,4.5,5.9,6.6
		c1.6,1.4,3.2,2.6,4.8,3.8l0.7,0.5c3.2,2.4,4.6,3.7,5,4.9c0,0,0.7,1.8,0.7,1.8l1.3,1.3l1.2,1.2c2,2,4,4,6.1,5.8
		c3.1,2.6,6,4.6,9.1,6.1c0.1,0.1,0.2,0.2,0.5,0.7c0.5,0.9,1,1.9,1.5,3l0.4,0.8c0.7,1.6,1.8,3.9,3.5,6.2c2.1,2.7,4.7,4.7,7.6,5.9
		l0.1,0l5,1.7c0,0,0.2-0.4,0.3-0.6c0.6,1.7,1.6,4.3,1.6,4.3l0.7,1c0,0,0.7,1,0.7,1l-0.1-0.1c1.9,2.8,4.4,3.5,5.2,3.8
		c0.1,0,3,0.8,3,0.8c0,0,1.1,0.3,2.6,0.9c0.3,0.3,0.6,0.6,0.7,0.6c0.4,0.3,0.6,0.6,0.7,0.8c-0.1,0.8-0.2,3.3-0.2,3.3l3,2.8l1.4,1.3
		c0.9,0.8,2.5,2,5,2.8l0.2,0.1l0.2,0c0.3,0.1,0.5,0,0.8,0.1c1.3,4.5,3.8,8.8,7.8,12.8c1.9,1.9,3.9,3.6,5.8,5.2c0,0,0.4,0.3,0.4,0.3
		s3.5,3.1,3.7,3.3c1.2,1.5,2.5,2.7,3.4,3.5l2.2,1.7l1.3,1c1.8,1.4,2.2,2,2.2,2.1c0.1,0.5,1.2,4.6,1.2,4.6s6.1,3.2,8,6.3
		c0.7,1.1,1.2,1.9,1.2,1.9c0,0,0.7,1.1,0.7,1.1s0.9,0.8,1.1,1c0.2,0.2,0.6,0.8,0.6,0.8l2,2.7l0.3,0.5l1.6,2.2
		c2.1,2.8,4.7,4.4,7.2,4.7c0.7,1.1,1.7,2.6,1.7,2.6c3.7,5.5,7.5,11.1,11.8,16.8l5.5,7.3c0,0,2.7,2.2,3.1,2.5
		c1.8,2.1,18.1,20.9,26.1,29.6c13,14.1,24.1,24.9,35,33.8c3.5,2.8,9,6.2,16.3,4.7c0,0,1.2-0.3,1.2-0.3l1.1-0.6
		c3.7-2,5.9-5.5,6.6-10.1c0,0,0.2-2.7,0.2-2.7l0.1-1.9l0-0.4l-0.1-9.6c0,0.1,0,0.2,0,0.2l0-0.4l0,0.1
		C520.6,498.2,520,493.8,519.4,490.1z M231.7,234.8L231.7,234.8l0,0.2C231.8,235,231.8,234.9,231.7,234.8z M517.9,502.6
		c0,0,0,0.1,0,0.1L517.9,502.6L517.9,502.6z"/>
	<path d="M519.4,490.1L519.4,490.1l-0.6-4.7c-0.3-2.8-0.7-5.7-1.4-8.8c-0.7-2.9-1.7-5.9-2.7-8.8l-1.8-5.7l-0.1-0.2
		c-9.3-24.7-18.7-48.4-31.3-66.2c0-0.1-0.8-1.1-1.2-1.6c-0.1-0.1-0.1-0.3-0.1-0.3c-1.8-4.1-4.3-8.3-7.7-13.4l-6.3-8.8
		c0,0-2.1-2.9-2.2-3c0-0.1-0.2-0.3-0.4-0.6c-0.9-2.7-1.9-5.6-3.5-8.2c-1.5-2.5-2.8-3-4.2-4l-2.1-1.6l-2.1-2.8l-2.9,0.8
		c0,0,0.1,0,0,0c-0.1-0.2,0.8-1.5,0.8-1.7c-0.3-4.8-2.9-7.3-6-9.8c0-0.3-2-4.6-2.1-4.9c-2.2-5-5.7-5.5-6.8-7c0,0-3.2-0.8-3.2-0.8
		c-0.1-0.1-0.2-1.8-0.2-1.8c-1.3-2.7-1.6-3.8-3.5-7.2c-2.4-4.2-5.6-7.3-9.1-11.9c-3.1-4.1-11-14.5-11-14.5
		c-4.4-4.8-6.5-8.2-9.5-10.3l1.9-2.1c-1.6-2.6-5.4-7.1-9.5-11.7c-9.4-10.6-14.6-15-32.5-26.7l-9.1-4.9l-0.1-3.3
		c-6.3-3.4-22.1-17.9-41-19.7l1.1-2c0,0-4-2.6-8-4.3c-15.5-6.7-37.7-8.9-53.7-1.4l0,0l0,0c0,0,0-0.1,0,0
		c-13.9-9.8-27.5-18.8-41.5-27.4l-0.1,0l-27.2-11.9l2.5,3.6l19.4,28l10.3,6c8.6,5,16.7,9.8,24.1,14.8c-0.9,0.9-1.7,1.9-2.4,2.9
		c-0.7,1-1.5,2.3-2.1,3.6c-1.1,2.5-1.5,4.7-1.4,6.5c0,1.2,0.2,2.1,0.5,3c0,0.2,0.2,1.7,0.3,2c0,0.1,0,0.3,0,0.4
		c0,1.3,0.4,2.4,0.7,3.1c0,0-0.2,0.1-0.2,0.1l2.1,4.5c0.3,0.7,1,2.2,2.2,5.2l0.5,1.4l1,1.2c0.8,1,2.5,3.1,4.1,5.3l6.6,9
		c4,5.5,8.6,11.5,11.7,14.5c1.4,2.1,3.5,5.1,5.8,7.9c3.7,4.3,7.3,6.9,11,8.1c0,0,2.7,0.8,4.5,1.4c0.1,0.2,0.2,0.5,0.2,0.5l0.3,1.2
		l0.7,1c1.5,2.3,3.4,4.5,5.9,6.6c1.6,1.4,3.2,2.6,4.8,3.8l0.7,0.5c3.2,2.4,4.6,3.7,5,4.9c0,0,0.7,1.8,0.7,1.8l1.3,1.3l1.2,1.2
		c2,2,4,4,6.1,5.8c3.1,2.6,6,4.6,9.1,6.1c0.1,0.1,0.2,0.2,0.5,0.7c0.5,0.9,1,1.9,1.5,3l0.4,0.8c0.7,1.6,1.8,3.9,3.5,6.2
		c2.1,2.7,4.7,4.7,7.6,5.9l0.1,0l5,1.7c0,0,0.2-0.4,0.3-0.6c0.6,1.7,1.6,4.3,1.6,4.3l0.7,1c0,0,0.7,1,0.7,1l-0.1-0.1
		c1.9,2.8,4.4,3.5,5.2,3.8c0.1,0,3,0.8,3,0.8c0,0,1.1,0.3,2.6,0.9c0.3,0.3,0.6,0.6,0.7,0.6c0.4,0.3,0.6,0.6,0.7,0.8
		c-0.1,0.8-0.2,3.3-0.2,3.3l3,2.8l1.4,1.3c0.9,0.8,2.5,2,5,2.8l0.2,0.1l0.2,0c0.3,0.1,0.5,0,0.8,0.1c1.3,4.5,3.8,8.8,7.8,12.8
		c1.9,1.9,3.9,3.6,5.8,5.2c0,0,0.4,0.3,0.4,0.3s3.5,3.1,3.7,3.3c1.2,1.5,2.5,2.7,3.4,3.5l2.2,1.7l1.3,1c1.8,1.4,2.2,2,2.2,2.1
		c0.1,0.5,1.2,4.6,1.2,4.6s6.1,3.2,8,6.3c0.7,1.1,1.2,1.9,1.2,1.9c0,0,0.7,1.1,0.7,1.1s0.9,0.8,1.1,1c0.2,0.2,0.6,0.8,0.6,0.8l2,2.7
		l0.3,0.5l1.6,2.2c2.1,2.8,4.7,4.4,7.2,4.7c0.7,1.1,1.7,2.6,1.7,2.6c3.7,5.5,7.5,11.1,11.8,16.8l5.5,7.3c0,0,2.7,2.2,3.1,2.5
		c1.8,2.1,18.1,20.9,26.1,29.6c13,14.1,24.1,24.9,35,33.8c3.5,2.8,9,6.2,16.3,4.7c0,0,1.2-0.3,1.2-0.3l1.1-0.6
		c3.7-2,5.9-5.5,6.6-10.1c0,0,0.2-2.7,0.2-2.7l0.1-1.9l0-0.4l-0.1-9.6c0,0.1,0,0.2,0,0.2l0-0.4l0,0.1
		C520.6,498.2,520,493.8,519.4,490.1z M231.7,234.8L231.7,234.8l0,0.2C231.8,235,231.8,234.9,231.7,234.8z M441.9,345.5
		c6.2,5.2,3.1,6.8,3.1,6.8s0.8,1.1,1.1,1.3c0.1,0.3,0.7,2.6,0.7,2.6l1.2-0.3c0.5-0.1,0.8-0.1,1.1,0c0,0,0.1,0,0.1,0
		c0.4,0.3,2.3,1.7,2.3,1.7l1.3,1c1.1,0.8,2.3,1.9,3.3,3.7c1.4,2.4,2.4,5.2,3.2,7.8l0.1,0.2l0.8,1.1c0,0,2.2,3.1,2.2,3.1l6.2,8.7
		c3.3,4.8,5.6,8.9,7.3,12.7l0.3,0.8l1.5,2c12.3,17.3,21.5,40.7,30.7,65.1c0,0,1.8,5.6,1.8,5.6c0.9,2.8,1.9,5.8,2.6,8.5
		c0.7,2.8,1,5.5,1.3,8.1l0.7,5l0,0c0.4,2.4,0.8,4.9,0.8,7.6c0,1.3,0,2.6-0.1,3.9l0,0.1l0.1,9.8c0,0.3-0.3,4.3-0.3,4.3
		c-0.4,3.1-1.8,5.3-4.1,6.6c0,0-0.3,0.2-0.5,0.3c-0.2,0-0.5,0.1-0.5,0.1c-4.2,0.9-7.9-0.3-12.3-3.7c-10.7-8.8-21.7-19.4-34.5-33.3
		c-8.3-9.1-26-29.5-26.2-29.7l0,0c0,0-3.7-3.5-3.8-3.6c-0.1-0.2-5.6-7.4-5.6-7.4c-3-4-6.4-8.9-9.9-14.1l-3.7-5.5l-1.3,0.2
		c-1.4,0.2-3.1-0.9-4.6-2.9l-1.5-2.1l-0.3-0.5l-2.1-2.9c0,0-1-1.2-1-1.2l0,0c0,0-0.6-0.5-0.8-0.7c-0.1-0.2-0.3-0.6-0.3-0.6
		s-0.2-0.3-0.8-1.1c0,0,0,0,0,0c0-0.2-0.2-0.4-0.5-0.8c0,0,0,0,0,0c0,0,0,0,0,0c-2-2.1-8.4-7.3-8.1-8.1c-0.2-0.7-0.4-1.5-0.4-1.5
		c-0.4-1.3-1.5-2.6-3.9-4.5l-1.4-1.1l-2-1.6c-0.9-0.7-2-1.7-2.9-2.9l-0.1-0.1l-4.2-3.6l-0.4-0.3c-1.8-1.5-3.8-3.2-5.5-4.9
		c-4-4-6.2-8-7.1-12.5l-0.4-2l-1.9,0.3c-0.5,0.1-1.1,0.1-1.6,0c-1.7-0.6-2.7-1.4-3.2-1.8l-1.3-1.3c0,0-0.8-0.8-1.4-1.3
		c0-0.7,0.2-2.4,0.2-2.4l-0.1-0.3c-0.6-1.3-1.2-2.1-2.2-3c0,0-1.4-1.2-1.4-1.2l-0.2-0.1c-2-0.8-3.6-1.3-3.6-1.3c0,0-3-0.8-3-0.8
		c-0.8-0.2-1.8-0.7-2.6-1.9c0,0-0.7-1-0.7-1c0,0-0.2-0.3-0.3-0.4c-0.1-0.3-5.1-13.8-5.1-13.8s-2.7,5.3-3.4,6.5c-0.5-0.2-1-0.4-1-0.4
		c-2.1-0.9-4-2.3-5.5-4.4c-1.4-1.8-2.4-3.9-3-5.3l-0.4-0.8c-0.5-1.2-1.1-2.4-1.8-3.5c-0.6-1-1.2-1.7-1.9-2.1l-0.1-0.1l-0.1,0
		c-2.9-1.4-5.6-3.2-8.5-5.7c-2-1.7-3.9-3.6-5.9-5.6l-1.2-1.2c0,0-0.4-0.4-0.6-0.6c-0.1-0.3-0.3-0.8-0.3-0.8c-0.9-2.4-3-4.3-6.6-7
		c0,0-0.7-0.5-0.7-0.5c-1.5-1.1-3.1-2.3-4.5-3.5c-2.1-1.9-3.7-3.6-5-5.6c0,0-0.2-0.3-0.3-0.5c-0.1-0.2-0.2-0.5-0.2-0.5l-0.9-2.2
		c0,0-0.2-0.3-0.2-0.3l-0.2-0.5l-6.6-2c-2.8-0.9-5.7-3-8.8-6.6c-2.3-2.6-4.3-5.6-5.7-7.7l-0.1-0.1l-0.1-0.1
		c-2.8-2.7-7.4-8.7-11.4-14.2l-6.6-9c-2-2.6-3.4-4.6-4.3-5.6c0,0-0.3-0.3-0.4-0.5c-0.1-0.2-0.2-0.6-0.2-0.6
		c-0.9-2.3-1.6-4.1-2.2-5.2c1.1-0.4,3.5-1.2,3.5-1.2l-0.8-3.8l-1.1,0.1c-2.1,0.2-3.1,0.1-3.6,0.1c-0.1-0.4-0.2-0.9-0.3-1.2
		c0-0.1,0-0.2,0-0.3l0-0.2l-0.1-1c0,0-0.2-1.5-0.2-1.5l0-0.1l0-0.1c-0.2-0.7-0.3-1.4-0.4-2.1c0-1.4,0.3-2.8,1-4.4
		c0.5-1.1,1.2-2.2,1.6-2.8c0.1-0.1,4.1-4.7,4.1-4.7l-3.8-2.7c0,0,0,0,0,0c-7.7-5.2-16-10.1-24.8-15.2c0,0-9.5-5.7-9.8-5.8
		c-0.3-0.4-12.8-18.4-16.6-23.8c5.5,2.4,18.8,8.2,18.9,8.3c14.1,8.6,27.8,17.7,41.8,27.6c0.6,0.4,4.8,0.4,4.8,0.4s0,0,0,0
		c0,0,22.8-4.7,37.4-1c4.2,1,8.3,2,13.7,4.5c0.4,0.2-4.8,4.4-4.4,4.6c0.3,0.2,7,0.3,7.4,0.3c7,0.7,12.9,2.9,16.5,4.5
		c6.5,2.9,15.8,7.9,21.9,13.6c0,0-5.9,2.3-9,4.8l0,0c0,0,7.9-2.7,14.8,1.3c27.3,16,34,23.9,45.7,37.7l-3.1,2c0,0,1-0.4,6.9,7.2
		c6.2,8.2,7.6,9.7,12,15.4c2.4,3.1,2.4,3.1,11.1,14.2c6.1,7.9,5.6,10.4,5.6,10.4l-3.5,1.1c0.3,0.5,7.4,1.3,7.7,1.7
		c3.3,4.8,5.5,4.8,6.7,7.8c1.2,2.9,1.7,4.6,1.7,4.6L441.9,345.5z M517.9,502.6c0,0,0,0.1,0,0.1L517.9,502.6L517.9,502.6z"/>
	<path class="st1" d="M204.7,193.6c12.4,7.4,23.5,14.7,33.7,21.6c61.6,44.2,116.9,92.3,166.1,148.7c13.8,16.5,27.6,32.6,40.4,49.8
		c15.1,21.6,29.9,43.6,44.3,66.1c0.5,0.5,1.3,0.3,1.5-0.3l-0.5-1.9c-24.6-40.2-50-75-78.4-111.2c-0.9-1.1-1.3-2.4-2.6-3.4
		c-19.7-25.9-43.8-47.8-66.7-71.1c-43.2-39-101.5-86.7-139.5-108l-7.3-3L204.7,193.6z"/>
	<path d="M239.4,227.2c-0.1,0.1-2.8,3.8-1.7,6c1.3,7.8-1,0.2,1.6,7.2c0.1,0.4,0.4,0.4,3,7c3.8,4.3,18.4,25.7,22.4,28.8
		c3.1,4.7,8.1,12,12.9,13.4c0.7-3.2,0.8-4.1,0.1-7.1c1.8-2.4-2.8-8.9,0.3-9.8c1.6,0.4,1.9,2.6,2.4,4.5c-0.7,1.9-0.1,3.6,0.3,5.3
		c1.3,5.2,5.9,9.8,7.3,14.7c4.7,7.3,14.4,10,17.2,17.4c4.6,4.6,8.9,9.2,14.7,11.8c5.9,3.5,10.6,14.8,10.6,14.8
		c0.3-0.7,1.1-0.6,1.2-1.2c0.1-1.6,0.3-3.7,1.3-5.2c-0.2-2.8,0-6.3,3.4-7.7c0,3.8,2.2,7.3,2.7,11.3l0,1.3l4.5,12.2
		c0.6,0.9,0.7,0.9,0.8,1.1c0.3,0.4,0.3,0.3,3.6,1.2c0,0,2.9,0.8,5.6,2.2c-0.5,0.1,0.3,0.2,1.1,1.3c2.1,1.9,3.7,4.1,3.5,6.9
		c1,0.9,1.6,1.8,2.7,2.2c3.8,0.8,4.4-13.5,6.5-6.1c-0.5,2.1-2,7.3,0.2,9c0.8,10.3,10.4,15.4,16.6,21.4c2.2,3.6,9.6,6.1,11.1,11.7
		l1.4,0.4c1.4-3-0.1-5.6-0.6-8.4c1-2-1-6.1,1.8-6.1c2.6,0.7,0.4,3.4,0.3,5.2c0.3,3,0.9,8.6,1.9,12.5c0,0-0.5-1.2,4.6,6.9
		c2.2,1.7,6.9,9.6,6.5,8.1c0.8-1.1,0.6-3.7,0.6-6.4c0-2.9,0.1-6-0.7-7c0.7-5.1,1-9.7-1.2-14.1c-1.3-3.5-2.8-6.9-0.8-10.7
		c-0.7-3.5-0.9-7.9,0-11.2c-10.3-11.3-20.6-23.1-31.2-34.2c-20.3-21.3-41.4-41.5-63.3-60.8c-6.7-5.9-13.4-11.7-20.3-17.3
		c-15.6-13-31.6-26-48.4-37.5C243.2,223,240.8,225,239.4,227.2z"/>
	<path d="M424.8,378.4c0,0-3.5-4.4-5.1-6.5c8.5,2.4,17.2,3.4,25.8,2.9l0.1,0c1.7-0.2,3.4,0,5.2,0.2c2.1,0.2,4.2,0.4,6.1-0.1
		c0.5,0.7,1.8,2.5,1.8,2.5c4.5,6.1,9,12.5,12.1,18.8c-2-0.2-4-0.6-6.2-1.1c0,0-5.8-1.2-5.8-1.2c-3.5-1-6.9-1.5-10.1-1.9
		c-2.9-0.4-5.9-0.7-9-1.6l-0.2,0c0,0-0.1,0-0.1,0c0,0-0.9-0.2-0.9-0.2c-1.3-0.4-3-0.9-4.4-0.5C430.7,386.2,427.7,382.3,424.8,378.4z
		"/>
	<path class="st1" d="M435.6,395.7c0.1,0,0.1,0,0.2,0.1l0,0C435.7,395.8,435.6,395.7,435.6,395.7z M492.2,482.2c0.4-0.3,1.1-1,1-2.3
		c0-0.2,0-0.5-0.1-0.8l0-0.1l-0.1-0.1c-4.2-8.1-8.7-15.2-13.5-22.8l-5-8c-11.8-17.4-30.4-44.2-36.8-52.3c1.5,0.2,3.8,0.4,3.8,0.4
		c3.1,0.3,6,0.6,8.9,1.4l0.1,0l0.1,0c7.4,0.9,14.9,2.2,23.5,4.2c11.9,16.8,20.9,39.6,29.9,63.5c0,0,1.8,5.6,1.8,5.6
		c0.9,2.7,1.8,5.6,2.5,8.3c0.7,2.7,1,5.3,1.3,7.8l0.6,4.8c0.4,2.2,0.7,4.5,0.8,6.9c0,1.1,0,2.3-0.1,3.4l-0.2,1.7
		c0,0,0.2-0.1,0.4-0.2c0,2.2-0.1,8.2-0.1,8.2l0-0.1l-0.1,2.1c-0.1,2.1-0.1,4.2-1.8,5.2c-2.8,0.5-5.1-0.3-8.4-2.8
		c-20.3-16.6-38.5-37.5-56.1-57.8c0,0-8.4-9.6-9.3-10.7c1.6-2.4,2.1-4.8,2-7.1c0-1.6-0.3-3.1-0.5-4.7c-0.2-1.6-0.5-3.2-0.5-4.8
		c0-0.2,0-0.3,0-0.5l0-0.1l0-0.1c-0.4-3.7-1.1-7.4-1.7-11c-1-5.7-2-11.5-2.1-17c0,0,0-0.1,0-0.1c13.6,17,24.5,33.3,35.9,50.6
		c6.2,9.3,12.6,19,19.6,29l0.1,0.2l0.2,0.1C489.3,482.8,491.1,483,492.2,482.2z"/>
	<path d="M411.5,388.5c2,4.8,4.6,9.3,3.5,14.8c2.2,2.4-0.7,17.2,1.5,20c4.9,7.2,9.6,14.4,15.2,21.8l0.2-3.4l-0.1,0.2
		c0.4-3.1-1.2-7.4-0.2-11.3c-1.2-7.5-1.8-15-3.2-22.7c0.8-3.7-1.9-6.5-0.1-10.1l-16.5-21.3C412.3,380.8,413.8,383.8,411.5,388.5z"/>
</g>
<g id="Lager_6">
	<path d="M455.1,369.6c-0.6-1.7-1.5-4.8-4.4-7.2c-2.9-2.5-2.6-1.6-4.6-1.3c-2,0.3-2.3-1.3-3-4.4l-24.4-0.1c0-0.1,2.4-0.3,2.4-0.4
		l21.2-3.1c-0.5-1.6-1.2-2.7-2.7-4.1c-2-1.9-4.3-4.5-4.7-7.3c-0.4-2.8-2.4-1.8-5.6-7.4l-13.5-3.4c0,0,0,0,0,0
		c-0.2-0.7-0.4-1.4-0.6-2l8.4-1.9c0-1.7-1.4-3.4-4.7-7.3c-7.6-8.9-12.1-15.4-14.1-17.8c0,0-4.8-5.2-8.7-11.4c-1.2-2-7.8-8.4-9-10.4
		c0,0-0.1,0.1-0.2,0.2c0,0,0,0,0,0l2.3-1.6c-6.7-9.2-11.9-12.5-16-16.4c-3.7-3.5-21-15.5-27.1-18.6c-3.3-1.7-9.4-1.7-13.8-1.5
		l-1-2.4c3.5-4,5.6-4.8,5.6-4.8s-7.8-5.7-15.8-9.5c-4-1.9-10.5-3.7-15.8-4.5l-9-4.2l-5.6,0.9c2.2-2.1,4.2-3.3,4.2-3.3
		c-4.4-1.7-8.3-2.7-12.7-3.6l-0.2-0.4c-7-3-18-5.2-18-5.2s-1.4-0.5-9-1.4c-17.6-2.1-41.8,2.4-41.8,2.4l-4.3-2.8l-14,3.4l-2.2,9.2
		l-11.4-2.3l-33.1,14.8l-4.1,12.8l-5.4-0.7c-14.9,5.4-30,15.1-30,15.1L86,283l2.3,10.1l-5.6,0.5c-6.6,2.7-16.2,15.4-21,30
		c-4.9,14.6-2.5,27.6-2.5,27.6c-2-0.9-5-4.3-5-4.3c-3.9,21.9,6.7,35.7,6.7,35.7c-0.5-0.1-5,0.5-5,0.5c5.4,29.8,18.7,35.1,18.7,35.1
		c0,0.5-1.6,3.9-1.6,3.9l7.6,5.8c-0.4,1.3-0.9,3.5-0.9,3.5l10.6,5.7l0,3.5l5.1,1.2l-1.8,2.3c0,0,3.4,3.2,5.7,4.7
		c18.1,10.9,30.6,11.8,30.6,11.8s1.2,3.6,16.1,5.5c21.7,2.6,39.7,10.8,51,16.3c11.3,5.6,18.7,9.2,18.7,9.2s23.8,16.5,28.1,12.5
		c4.2-4,32.7-20.9,52-29.2c16.8-7.2,35.8-10.2,43.8-10.7c7.8-0.4,9-4.2,9-4.2c9.7-1.3,9.5-2.1,18-5.9c8.4-3.8,18.6-10.1,18.6-10.1
		c-4.4-2.5,5.3-5.7,5.3-5.7c-6.5-1.9,7.8-5.9,7.8-5.9c-6.3-4.9,3.2-6.8,3.2-6.8c-4-7.6-2.3-6.8,2.5-11.4
		c13.4-12.8,14.8-33.6,14.8-33.6l-4,0.4c1.9-3.9,3.3-7.7,4.3-11.1c1.9,0.6,5.3,1.4,8.6,1.5c5.1,0.2,11,0.9,15.3,1.3
		c4.3,0.5,2.8-1.2,7.9-1.3C455.7,371,455.7,371.3,455.1,369.6z"/>
	<path class="st0" d="M401.8,391.1c0,0,5.1-5.6,9.9-16.3c4.8-10.7,4-19.5,4-19.5s-0.5,2.7-3.7,7.2c-3.2,4.5-7.2,5.1-7.2,5.1
		c0.3-2.4,5.6-15.8,7.2-22.7c1.6-6.9-2.1-17.1-4.5-23c-2.4-5.9-4.3-8.8-9.1-15.5c-4.8-6.7-6.4-7.2-11.2-5.9c-25.3,7-35,17.6-39,20.8
		c-4,3.2-27,23.8-27,23.8c37.7-43.6,61.5-45.2,61.7-46c0.3-0.8,3.5-9.4,2.1-12.8c-1.3-3.5-17.6-23.2-24.8-27.8
		c-7.2-4.5-19.8-8.8-19.8-8.8s-6.4-0.3-11.2,2.1c-4.8,2.4-14.7,12.3-21.6,19.8c-6.9,7.5-19,26.7-19,26.7c4-7.7,13.4-24,21.4-33.7
		c8-9.6,20.6-17.1,20.6-17.1s-5.1-11.8-6.1-12.3c-1.1-0.5-28.3-13.1-28.3-13.1s-5.3,0.8-7.5,1.1c-2.1,0.3-4,1-4,1s-2.4,1.5-9.1,7.9
		c-6.7,6.4-19.1,26.1-19.1,26.1c12.3-23.8,25.7-35.4,25.7-35.4l-4.3-8.9c-27.8-8.5-47.6-5.6-55-5.1c-6.2,0.4-20.6,4.3-21.6,5.6
		c-1.1,1.3-3.2,9.4-3.2,9.4s0,0,9.9,9.6c9.9,9.6,15,25.1,15,25.1c-8.3-18.4-24-31.3-25.4-32.6c-1.3-1.3-2.9-2.8-5.3-3.2
		c-3.1-0.4-8.1-1.1-9.4-0.6c-1.3,0.5-27.3,11.5-28.1,12.8c-0.8,1.3-4.3,12.8-4.3,12.8c24.9,12,39.8,46,39.8,46
		c-14.2-25.4-30.7-37.4-36.6-41.1c-5.9-3.7-10.2-5.6-13.6-4.3c-3.5,1.3-21.6,9.1-24.6,11.8c-2.9,2.7-21.1,24.3-21.1,24.3l3.5,12.8
		c37.9,14.2,51.3,47.3,51.3,47.3c-25.4-40.6-53.7-45.4-53.7-45.4c-0.5,0-0.9-0.1-1.4-0.1c-14.5-0.4-20.9,16.2-25.8,31.4
		c-5,15.6-0.3,26.6,0.8,30.3c1.1,3.7,2.8,6.3,2.8,6.3c-4.8-2.8-8.7-10.5-8.7-10.5c-1.2,17.6,12.2,33.9,12.2,33.9
		c-3.1,2.8-9.6-3.1-9.6-3.1s-0.3,1.6,2.2,7.9C72,406,77.3,410.7,81,412.8c3.6,2.2,4.5,2.8,5,5.3c0.5,2.5-5,4.2-5,4.2
		c4.5,0.1,5.9,1.2,7.6,4.3c1.4,2.6-1.4,3.8-2.4,4.1c0,0,0,0,0,0c0.7-0.1,2.5,0.1,7.3,1.8c6.9,2.4,3.3,5.1,3.3,5.1
		c3.2-0.4,6.8,1.6,7.1,3.2c0.3,1.6-1.3,2-1.3,2s2.1,1.4,6.4,4.1c12.6,7.8,20.1,8.2,20.1,8.2c-1.7-7.5,9.3-12,18.9-10.4
		c9.6,1.6,27.5,9.3,35.2,12.2c7.7,2.9,19.8,9.4,19.8,9.4c-0.1-0.4-1-5.1-1.2-8.7c-0.1-3.6,0.6-5.6,0.6-5.6l-0.1-0.9
		c-0.4-1.6-5.8-22.3-6.1-23.6c-0.1-0.4-0.3-1.4-0.5-2.6c-0.1-0.3-0.1-0.6-0.2-0.9c-0.4-2.4-0.8-5-0.8-5l-0.5-14.2l0.2,0.9
		c0,0,1.1-1.8,2.7-6.7c1.5-4.8,17.1-35,18.3-38c1.2-3,5-14.3,5-14.3s0.7,2.7,3-0.3c2.3-3,2.3,0.7,5-3c2.7-3.7,11.3-8.3,15.7-8.3
		c4.3,0,12,11.1,14,10.3c2-0.7,3,10,3,10l2.3-0.3c0,0,0.7,3.7,0.5,6.1c-0.2,2.5,6.5,11.5,9.2,17.2c2.7,5.7,8.3,23.5,8.3,23.5
		l2.4,19.8l-8.2,28.9c0,0,0.9,0.2,1.5,5.3c0.5,5.1-1.9,11-1.9,11s45.3-24,60.6-23.2c15.1,0.8,13.5,11.5,13.5,11.5
		c13.6-1.1,27.1-12,27.1-12c-0.8-0.2-3.5-1.2-1.9-3c1.6-1.9,6.7-2.4,6.7-2.4c-1.9-1.6-1.1-2.9,2.1-4.5c3.2-1.6,8.6-3.2,8.6-3.2
		c-3.5-2.7-3.2-3.5-1.1-5.6c2.1-2.1,4.8-2.1,4.8-2.1c-5.2-4.8-2.1-6.7,1.1-9.1c3.2-2.4,6.9-6.1,9.6-9.9c3.6-5,6.1-16.3,6.1-16.3
		s-3.5,2.1-5.1,2.7C406,389.7,401.8,391.1,401.8,391.1z"/>
	<path class="st0" d="M238.4,392.4c0.1,0,0.3,0,0.4-0.1C238.7,392.4,238.6,392.4,238.4,392.4z"/>
	<path class="st0" d="M239.7,392.3C239.6,392.3,239.6,392.3,239.7,392.3c-0.1,0-0.1,0-0.1,0C239.6,392.3,239.6,392.3,239.7,392.3
		C239.6,392.3,239.6,392.3,239.7,392.3z"/>
	<path class="st0" d="M239.6,392.3C239.5,392.3,239.5,392.3,239.6,392.3C239.5,392.3,239.5,392.3,239.6,392.3L239.6,392.3z"/>
	<polygon class="st0" points="239.7,392.3 239.7,392.3 239.7,392.3 	"/>
	<path class="st0" d="M238.8,392.4c0.2,0,0.4,0,0.7,0C239.3,392.3,239.1,392.3,238.8,392.4z"/>
	<path class="st0" d="M238.1,392.5c0.1,0,0.2,0,0.3,0C238.3,392.4,238.2,392.4,238.1,392.5z"/>
	<path class="st0" d="M239.7,392.3L239.7,392.3C239.6,392.3,239.6,392.3,239.7,392.3C239.6,392.3,239.6,392.3,239.7,392.3z"/>
	<polygon class="st0" points="239.6,392.3 239.6,392.3 239.6,392.3 	"/>
	<path class="st0" d="M239.6,392.3C239.6,392.3,239.6,392.3,239.6,392.3L239.6,392.3L239.6,392.3L239.6,392.3
		C239.6,392.3,239.6,392.3,239.6,392.3z"/>
	<path class="st0" d="M239.6,392.3C239.6,392.3,239.6,392.3,239.6,392.3C239.6,392.3,239.6,392.3,239.6,392.3
		C239.6,392.3,239.6,392.3,239.6,392.3C239.6,392.3,239.6,392.3,239.6,392.3z"/>
	<path class="st3" d="M164.2,452.7c-23.5-7.5-27.2,2.2-21.1,2.6c6.1,0.4,19.1,3,27.5,5.7c15.1,4.9,26.9,10.9,37.7,17.1l0.6,0.3
		c0,0,0.5,1.2,0.6,1.7c0.2,0.6,0.7,2.1,0.5,2c-19.7-11.7-38.7-20.2-72.8-24.1c-4.1-0.5-3.8-3.3-2.7-5.1
		C136.2,449.9,141.5,443.5,164.2,452.7z"/>
	<path class="st3" d="M323.5,449.9c20.7-5.3,19.1,4.5,13,5c-6.1,0.4-19.1,3-27.5,5.7c-14.1,4.6-25.6,10.2-38.5,17.4l-1.3,3.8
		c21.4-12.2,40.7-20.6,73.1-24.1c2.9-0.3,3.6-2.6,3-5.1C344.6,450.1,341.5,443.9,323.5,449.9z"/>
	<path class="st4" d="M184.7,323c3.1,6,7.3,19.5,7.3,19.5s-8.8-18.6-16.4-29.3c-6.1-8.6-17.6-20.5-17.6-20.5s11.8,9,17.9,16.9
		C179.5,314.3,181.6,317,184.7,323z"/>
	<path class="st4" d="M80.1,398.5c5.6,6.2,9.5,9.9,16.3,14.8l3.1,1.6C91.7,409,90,400.3,80.1,398.5z"/>
	<path class="st4" d="M279.6,344.1c0,0,4.6-7.9,8.2-12.5c6-7.7,18.2-17.3,18.2-17.3s-11.7,11.5-17.4,20.2
		c-3.6,5.5-8.1,14.9-8.1,14.9L279.6,344.1z"/>
	<path class="st4" d="M100.9,286.1c0,0,18.5-21.5,20.4-22.9c1.9-1.4,16.9-8.2,21.5-9.5c4.6-1.4,8.2-2.5,8.2-2.5s-0.1-0.1-0.2-0.2
		c-4.5-2.6-8-3.8-10.9-2.6c-3.5,1.3-21.6,9.1-24.6,11.8c-2.9,2.7-21.1,24.3-21.1,24.3l3.5,12.8c29.5,11,44.2,33.6,49.2,43l1.9,4
		C148.8,344.2,136.3,304.6,100.9,286.1z"/>
	<path class="st4" d="M192.1,222.8c-2.9-0.4-8.1-1.1-9.4-0.6c-1.3,0.5-27.3,11.5-28.1,12.8c-0.8,1.3-4.3,12.8-4.3,12.8
		c22.3,10.8,36.6,39.2,39.3,44.9c6.4,13.1,10.1,21.4,10.1,21.4c-4.4-25-19.9-52.6-28.3-61.3s-12.8-12.8-12.8-12.8s0.3-1.4,7.1-4.9
		c6.8-3.5,19.9-8.7,19.9-8.7s4.1,0,8.2,0c1.9,0,4.2,0.9,6.2,1.9c-1.4-1.3-2.3-2.1-2.6-2.4C196,224.6,194.4,223.1,192.1,222.8z"/>
	<path class="st4" d="M220.2,242.7c-4.9-11.3-16.3-23.9-16.3-23.9c9.5-4.4,32.7-6.5,47.1-5.2c14.4,1.4,24.1,5,23.4,6
		c-1.6,2.2-7.8,11.5-12.5,19.8c-5.9,10.3-7,22-7,22c0.5-0.9,2.6-5.2,3.1-6c11.9-21.9,24.2-32.6,24.2-32.6l-4.3-8.9
		c-27.8-8.5-47.6-5.6-55-5.1c-6.2,0.4-20.6,4.3-21.6,5.6c-1.1,1.3-3.2,9.4-3.2,9.4s0,0,2.7,2.7c1.7,1.5,3.3,3.1,4.8,4.6
		c0.7,0.7,1.5,1.5,2.4,2.3c8.2,8,13.1,19.9,14.5,23.8c2.8,6.6,3.9,11.1,3.9,11.1S224.7,253.1,220.2,242.7z"/>
	<path class="st4" d="M295.1,226.4c2.7,1.1,25,12,25.9,13.3c0.8,1.4-2.2,1.1-11.4,12.5c-9.3,11.4-19.6,36.5-29.7,64.3
		c0,0,3.4-8.3,9.3-19.3c-0.4,0.7-0.7,1.1-0.7,1.1c4-7.7,13.4-24,21.4-33.7c8-9.6,20.6-17.1,20.6-17.1s-5.1-11.8-6.1-12.3
		c-1.1-0.5-28.3-13.1-28.3-13.1s-5.3,0.8-7.5,1.1c-2.1,0.3-4,1-4,1s-0.5,0.3-1.8,1.4C285.9,225.6,293,225.6,295.1,226.4z"/>
	<path class="st4" d="M338.9,253.9c2.2,0.3,13.6,4.6,20.7,10.9c7.1,6.3,18.5,20.1,18.5,23.1c0,0-17.2,10-29.4,22.1
		c-12.8,12.7-23.8,26.3-37.8,47c0,0,8-9.7,11.5-13c-0.8,0.7-1.2,1.1-1.2,1.1c37.7-43.6,61.5-45.2,61.7-46c0.3-0.8,3.5-9.4,2.1-12.8
		c-1.3-3.5-17.6-23.2-24.8-27.8c-7.2-4.5-19.8-8.8-19.8-8.8s-6.4-0.3-11.2,2.1c-1.1,0.6-2.5,1.5-4.1,2.8
		C328.9,254.3,337.2,253.7,338.9,253.9z"/>
	<path d="M386.7,348.4l2.1,0.9l0,0c-1.8,1.2-2.4,2.4-2.8,2.8c1.1-0.2,4.1,0.2,5.3,1l0,0l0,0c-11,4.9-3.6,5.5-3.6,5.5s-3.6,3.2-7.8,6
		c-0.4,0.2,0.4-0.2,0,0c1.4-0.1,4-0.4,5.5-1.5l0,0c0,0-0.4,2.2-1.6,4c-1,1.5-2.4,2.6-4.4,3.9c0.3,0.1,1.1,0.4,1.4,0.6l2.7,0.8
		l-2.4,1.8c-1.4,1.1-3,1.8-4.5,2.5c-1.3,0.6-2.6,1-3.9,1.6c1-0.3,4.5,2.5,4.5,2.5s-1.7,1.1-1.9,1.4c0.4,0.2,1,0.9,3.7,1.6l0,0l0,0
		c-2.9,1.5-3.2,2.4-3.7,2.8c0.8-0.2,3.7-0.4,4.7-1l0,0l0,0l0,0c-0.5,1.9-2.1,4.1-2.6,4.5l-1.6,1.4c-0.3,0.2-0.6,0.5-0.8,0.8
		c-0.3,0.3-0.5,0.5-0.6,0.8l-0.3,0.8c-0.9,2.7-2.9,4-4.9,4.9c-0.2,0.1-0.5,0.2-0.8,0.4c4,0.6,5.5,0.1,5.5,0.1c0.4,0.8-3,3.2-3.3,3.9
		c-0.3,0.6-0.7,1.5-2.8,3.1c-7.2,5.3-18,10.5-34.6,13.1c-2.6,3.6-6.1,4-9.4,3.8l-3.3-0.4c-1.6-0.2-4-0.9-6.9,0.5
		c0,0-0.9-1.6-1.6-2.7c0,0-1.6,0.6-3.1,0.8c-1.5,0.2-3.5-1.2-5.7-2.3c-2.2-1.1-3.8-1.4-5.2-0.9c-1.4,0.4-2.2-0.2-3.5,0.4
		c-1.3,0.6-4.1,2.6-6.8,4.7c0,0-3.9,2.5-5.2,3.4s0,0,0.5-5s-0.6-18.6-1.6-21.6c0,0,0.5-2.6,1.9-5.1c1.2-2.1,8-12.8,9.5-16.1
		c0,0,0.2,4.9,1.7,9.2c2,5.6,7.3,10.2,18.8,3.3s25-23.9,34.8-40c11.9-19.7,30.8-37.2,36.9-38.6c0,0-14.5,14.8-19.1,21.5
		c-4,5.8-9.7,16.1-13.4,23.1c0,0,19-5.4,29.4-14.6s14.9-16.4,14.9-16.4C395.4,345.4,386.7,348.4,386.7,348.4z"/>
	<path d="M379.9,364.6C379.9,364.6,379.9,364.6,379.9,364.6C380,364.5,380.1,364.5,379.9,364.6z"/>
	<path class="st3" d="M304.3,397.8c0,0,3.4-0.3,6.7-1.6c0,0,0.2,4.6,4.4,6.6c4.2,2.1,8.6,3,16.3-0.6c7.6-3.6,14.4-11.6,15.4-23.8
		c0.7-9.3-0.8-12.3-0.8-12.3s3.5-5.3,3.8-5.5c0.4-0.1,3.4-0.8,3.4-0.8s7,16.1-0.7,31.7s-24.5,25.1-38.2,20.6
		C303.5,408.5,304.3,397.8,304.3,397.8z"/>
	<path class="st0" d="M333.5,380.8c0,0,5.1-5.2,6.3-6.9c0,0,2.5,6.2-0.1,10.2c-2.1,3.2-5.4,2.9-6.4,0.4
		C332.4,382.1,333.5,380.8,333.5,380.8z"/>
	<path class="st4" d="M381.8,421c-6.4,5.4-10.8,8.6-18.1,12.5l-3.3,1.1C368.9,429.8,371.8,421.4,381.8,421z"/>
	<path class="st4" d="M401.8,391.1c0,0,5.1-5.6,9.9-16.3c4.8-10.7,4-19.5,4-19.5s-0.5,2.7-3.7,7.2c-3.2,4.5-7.2,5.1-7.2,5.1
		c3.7-5.5,6.7-14.7,7.7-22c1-7.1-2.2-18.1-4.6-24c-2.4-5.9-2.8-8-7.6-14.7c-4.8-6.7-8.4-7.8-13.3-6.4c-0.7,0.2-1.5,0.4-2.2,0.6
		c7.1-0.6,15,6.7,21.4,26.7c3,9.3,3.2,14,2.1,20.2c-1.4,7.5-3.4,14.1-9.4,24.2l0,0c8.3-0.4,11.2-3.2,11.2-3.2s-3.2,7.8-6.7,13.7
		c-4.4,7.5-8,13.2-8,13.2s2.4-0.2,6-0.8c3-0.5,6-1.7,6-1.7s-3,8.7-7.7,12.3c-4.7,3.7-13.3,8-9.7,14.7c0,0-5.7,3.3-4,7.7
		c0,0-6.3,1.3-7.7,3.3c-1.3,2-1,3.7-1,3.7s-7,1.7-7,3.3c0,1.7,0.7,3,0.7,3s-12.3,8.3-20.3,9.3c0,0-0.4-8-11.3-9.5
		c-9.7-1.4-21,3.5-30,6.5s-22.7,8.7-29,12c0,0,1-4-1-9.7l5.8-20.7c0,0,4.5-2.7,6-3.8c1.5-1.2,3.2-3,3.7-3s2.2,0.3,3.2,0.2
		c1-0.2,4,0.5,5.5,1.8c1.5,1.3,4.7,1.8,5.8,1.5c1.2-0.3,0.8-0.2,0.8-0.2l1.7,2.3c0,0,3-1.7,5.2-1.3c2.2,0.3,8.4,1.8,14.2-0.2
		c4-1.3,4.2-4,4.2-4s11.2-1.3,20.3-5.2c9.2-3.8,14.3-7,16.2-9.7c1.3-1.8,1.8-3.2,1.8-3.2s3.7-3.5,4.2-5.2c0.5-1.7,0.5-2.5,0.5-2.5
		s-1.2-0.7,1.2-2.7c2.3-2,4.3-6.5,4.8-8.5l-1.5-1.3l-1.8-2.2l2.2-0.8c0,0-2-2.2-2.5-2.5c0,0,6-3.3,7.5-5.8s1.5-2.5,1.5-2.5
		s-1.8-0.5-2.7-0.8c0,0,3.2-3,3-9.2l2-1.8c0,0-2.7-1.3-0.5-2.5c2.2-1.2,4.5-2.2,4.5-2.2s-1.5-2.5-2.7-3.3c-1.2-0.8-1.2-0.8-1.2-0.8
		s8.7-13.7,5.2-27.8c0,0-9.4,13.6-20.3,21.3c-8.1,5.7-21,10.4-21,10.4s6.4-11.2,10.3-17.6c3.5-5.6,15.3-18.3,23.4-26.3
		c0,0-6.4-0.5-15.3,5.7c-9.3,6.4-19.6,16.3-27.3,28.1c-7.5,11.7-27.7,38.7-38.6,43.9c-13,6.2-14.4-6.8-14.4-6.8
		c5.3-13.8,13.9-32.8,22.8-48.7c0.3-0.5,1.7-2.8,3.8-5.9c-4.6,4.5-27.1,31-39.2,70.5l0.8,2.7c0,0,4.4-5.2,8.8-13.7
		c0,0.7,0.2,1.6,0.6,2.6c2.5,6.8,9.7,9.8,21.2,2.9s25-23.9,34.8-40c11.9-19.7,30.8-37.2,36.9-38.6c0,0-14.5,14.8-19.1,21.5
		c-4,5.8-9.7,16.1-13.4,23.1c0,0,19-5.4,29.4-14.6s14.9-16.4,14.9-16.4c-1,19.2-9.7,22.2-9.7,22.2l2.1,0.9c-1.8,1.2-2.4,2.4-2.8,2.8
		c1.1-0.2,4.1,0.2,5.3,1c-11,4.9-3.6,5.5-3.6,5.5s-3.6,3.2-7.8,6c0.2-0.1,0.1-0.1,0,0c1.4-0.1,4-0.4,5.5-1.5c0,0-0.4,2.2-1.6,4
		c-1,1.5-2.4,2.6-4.4,3.9c0.3,0.1,1.1,0.4,1.4,0.6l2.7,0.8l-2.4,1.8c-1.4,1.1-3,1.8-4.5,2.5c-1.3,0.6-2.6,1-3.9,1.6
		c1-0.3,4.5,2.5,4.5,2.5s-1.7,1.1-1.9,1.4c0.4,0.2,1,0.9,3.7,1.6c-2.9,1.5-3.2,2.4-3.7,2.8c0.8-0.2,3.7-0.4,4.7-1
		c-0.5,1.9-2.1,4.1-2.6,4.5l-1.6,1.4c-0.3,0.2-0.6,0.5-0.8,0.8c-0.3,0.3-0.5,0.5-0.6,0.8l-0.3,0.8c-0.9,2.7-2.9,4-4.9,4.9
		c-0.2,0.1-0.5,0.2-0.8,0.4c4,0.6,5.5,0.1,5.5,0.1c0.4,0.8-3,3.2-3.3,3.9c-0.3,0.6-0.7,1.5-2.8,3.1c-7.2,5.3-18,10.5-34.6,13.1
		c-2.6,3.6-6.1,4-9.4,3.8l-3.3-0.4c-1.6-0.2-4-0.9-6.9,0.5c0,0-0.9-1.6-1.6-2.7c0,0-1.6,0.6-3.1,0.8c-1.5,0.2-3.5-1.2-5.7-2.3
		c-2.2-1.1-3.8-1.4-5.2-0.9c-1.4,0.4-2.2-0.2-3.5,0.4c-1.3,0.6-4.1,2.6-6.8,4.7c0,0-3.9,2.5-5.2,3.4l-0.4,1.4l-0.5,2.6l-5.1,18.2
		c0,0,0.5,1.6,1.1,6.7c0.5,5.1-1.9,11-1.9,11s45.3-23.9,60.6-23.2c15,0.7,13.5,11.5,13.5,11.5c13.6-1.1,27.1-12,27.1-12
		c-0.8-0.2-3.5-1.2-1.9-3c1.6-1.9,6.7-2.4,6.7-2.4c-1.9-1.6-1.1-2.9,2.1-4.5c3.2-1.6,8.6-3.2,8.6-3.2c-3.5-2.7-3.2-3.5-1.1-5.6
		c2.1-2.1,4.8-2.1,4.8-2.1c-5.2-4.8-2.1-6.7,1.1-9.1c3.2-2.4,6.9-6.1,9.6-9.9c3.6-5,6.1-16.3,6.1-16.3s-3.5,2.1-5.1,2.7
		C406,389.7,401.8,391.1,401.8,391.1z"/>
	<path class="st4" d="M201.9,457.5c-0.1-3.6,0.6-5.6,0.6-5.6l-0.1-0.9c-0.4-1.6-5.8-22.3-6.1-23.6c-0.1-0.4-0.8-25.1-0.8-25.1
		l0.5-2.2l1.2-4.9c-5.2-37.4-42.9-68.1-42.9-68.1c23.1,26.8,31.6,50.9,32.2,52.9c-0.5,1.1-1.5,2.8-3.5,5.1
		c-2.7,3.2-9.9,7.8-21.7-3.2c-19.6-18.3-21.2-26.4-38.2-48.7s-28.4-27.7-28.4-27.7c29.9,44.4,28.3,47.8,28.3,47.8
		s-7.3-2.5-20.3-12.4c-17.7-13.6-20.2-23.2-20.2-23.2s-2.7,6.2-3.1,12.9c-0.4,6.6,4.1,12.9,4.1,12.9l-2.5,2.2
		c2.5,1.3,5.8,3.9,5.8,3.9s-3.3,2.1-3.6,5c0,0,5.1,1.6,6.7,3.4c2.1,2.2,2.3,3.6,2.3,3.6l-4.8,0.1c0,0,0.5,2,1.5,4.2
		c1.3,2.9,4.1,5.9,4.1,5.9l-3.2,1.6c0,0,5.8,5.1,8.8,6.4c0,0-2.7,1.7-4.2,2.1l3.4,3.2l-4.8,1c2.1,6.4,7.6,9.5,7.6,9.5
		c0,3.2,2.8,4.3,2.8,4.3l-2,1.9c0,0,1.1,1.1,3.9,4.4c2.8,3.3,6,6.3,14.2,7.8c7.8,1.5,4.7,4.3,4.7,4.3s7.6,0.5,16.3,3.8
		c8.7,3.3,8.7,5.4,8.7,5.4l4.1,0.9c1.7-1.3,3.7-0.6,7.4-0.4c3.7,0.2,7.4-1.7,7.4-1.7s2.6,0.9,7.1-1.3c4.5-2.2,7.4-2.2,9.1-1.1
		c1.7,1.1,2.4,2.2,4.8,3.5c2.4,1.3,3.2,1.7,4.3,3.3c1.1,1.7,5.9,21.8,5.9,21.8c-0.9,3.2-0.1,8.5-0.1,8.5
		c-9.7-6.2-22.2-9.6-32.8-13.5c-10.6-3.9-19.1-6.5-26.8-5.7c-11.7,1.3-11.9,9.2-11.9,9.2c-9-1.4-19.9-9.2-19.9-9.2
		c1.2-3.6-6.3-7.1-6.3-7.1c0.6-4.4-8.6-5.6-8.6-5.6c0.4-5-3-6.3-3-6.3l0.9-0.9l-1.5-1.3c3.3-3.4-0.5-7-2-7.8
		c-1.5-0.7-5.4-3.7-8.7-6.9c-5.5-5.2-7.2-11.3-7.2-11.3s4.5,1,9-1.7c0,0-2.9-4.5-7.3-11.6c-4.1-6.8-5.3-12.8-5.3-12.8
		c3.1,3.9,9.4,4.1,9.4,4.1c-3.1-7.5-4-10.9-5.5-16.2c-2.2-8-2.7-19.8-0.2-28.5c3.4-12.1,8.2-19.2,13.7-23.7c4.3-3.5,9.5-5,9.5-5
		l-0.5,0c-13.4-0.4-22.1,11.9-26.7,27.1c-5.2,17.8,0.8,31.9,2,35.5c0.8,2.3,2.5,5.3,2.5,5.3c-4.4-2.3-8.7-10.5-8.7-10.5
		c-1.2,17.6,12.2,33.9,12.2,33.9c-3.1,2.8-9.6-3.1-9.6-3.1s-0.3,1.6,2.2,7.9C72,406,77.3,410.7,81,412.8c3.6,2.2,4.5,2.8,5,5.3
		c0.5,2.5-5,4.2-5,4.2c4.5,0.1,5.9,1.2,7.6,4.3c1.4,2.6-1.4,3.8-2.4,4.1c0,0,0,0,0,0c0.7-0.1,2.5,0.1,7.3,1.8
		c6.9,2.4,3.3,5.1,3.3,5.1c3.2-0.4,6.8,1.6,7.1,3.2c0.3,1.6-1.3,2-1.3,2s2.1,1.4,6.4,4.1c12.6,7.8,20.1,8.2,20.1,8.2
		c0.2-7.8,9.3-12,18.9-10.4c9.6,1.6,27.5,9.3,35.2,12.2c7.7,2.9,19.8,9.4,19.8,9.4C202.9,465.8,202.1,461.1,201.9,457.5z"/>
	<path d="M195.6,403.5c-1.3-5.8-7.1-18.6-7.1-18.6c-0.5,2.4-2.7,5.6-6.5,7.5c-9.9,4.9-23.6-4-33.2-16
		c-11.5-14.3-24.2-38.6-33.2-49.5c-9-11-16-17-16-17s14.6,19.3,21.4,33.4c6.8,14.1,6.8,14.1,6.8,14.1s-21.8-3.9-44.7-32.6
		c0,0-1.2,6.8,0.6,11.5c1.3,3.5,5.4,8.2,5.4,8.2l-2.8,1.5c0,0,1.7,0.9,2.9,1.7c1.1,0.7,2.3,2.2,2.3,2.2c-3.2,0.7-5.2,3.4-5.2,3.4
		s3.3-0.1,7.2,5.3c1.3,1.9,2,4.8,2,4.8s0,0-2.1,0c-1.3,0-2.2,0.3-2.2,0.3c1.8,3.9,7.3,7.1,7.8,7.3l-4,2c0,0,5,4.2,10.2,5.3
		c0,0-1,2.6-6.6,3.6l3.8,2.3c0,0-0.7,3.2-5.3,3.3c0.5,2.6,7.8,5.7,7.8,5.7s-0.3,1.9,1.2,3.1c1.6,1.2,3.5,2.6,4.7,2.8
		c0,0-1.7,2.6-4.9,2.3c0,0,5.3,5.7,10.8,7.6c5.6,1.9,16.3,2.3,11.8,5.9c0,0,8.4,0.8,13.9,3.3c5.6,2.4,8.2,4.9,8.2,4.9l2.9,0.3
		c0,0,1.4-1,4.2-0.8c2.8,0.2,6.9,0.1,8.3-0.6c1.4-0.7,1.4-0.7,1.4-0.7s1.6,0.7,3.5-0.2c1.9-0.9,7-3.3,9.9-3.1c3,0.2,6.6,1.4,8.7,3.5
		c2.1,2.1,3.8,2.8,4.9,3.3c1,0.5,2.3,2.1,2.3,2.1S197.6,412.3,195.6,403.5z"/>
	<path class="st0" d="M146.4,381.6c0,0-1.8-1.8-2.8-2.8c-1-1-3.5-3.8-3.5-3.8s-0.4,2-0.4,3.9c0,1.4,0.4,4.8,1.8,6.7
		c1.2,1.6,2.9,2.2,4.1,0.8C146.6,385.1,146.9,383.8,146.4,381.6z"/>
	<path class="st3" d="M169.6,396.2c0,0,3.8,0.9,6,0.6c0,0,2.2,7.4-5.4,13.2s-21,4.1-30.8-4.4s-13.9-17.8-15-27.1
		c-1-8.9,2.9-17.4,4.5-19.4c0,0,2.2,3.7,5.2,8.2c0,0-3.1,10.6,2,21.4c4.1,8.8,10.6,15,21.6,15.5S169.6,396.2,169.6,396.2z"/>
	<path d="M241.3,332.9c-7.2,0-12.2,7-13.2,8l-1.8-3.5c0,0-3.2,5-4,6.5l-2.5-6.5c0,0-1,8.5-2.8,13.5s-4,12-7,17s-12.5,21.5-14.2,32
		s-2.8,14,0.8,28.2s5.8,22,6,23.5c0,0-1.5,3.2-0.2,9s1.8,7,3.2,9.2s2.5,6.2,3.5,8.8s1.8,6.8,2.5,8.2s2,5,5,6.5l1,0.5
		c0,0,3.2,13.8,5.2,22.8c2,9,4.2,22.5,7.5,30.8s6.5,12.5,9.2,14.8c0,0,4.5-3.5,6.2-8s4.5-11.2,6.8-22s6.2-28,7.2-31.8s1.5-6,1.5-6
		s2-0.5,3.5-2.5s3-4.8,4-8.5s1.2-6.5,3-9.5s4.5-8.5,5.2-15.2s-1.1-9.2-0.8-9.9s3.1-11.8,4.8-18.1s4.2-12,3.5-20.8s-6-24-9-30.8
		s-7.5-13.8-8.8-15.5s-1.8-4.5-1.5-6.8s-0.2-8.5-0.2-8.5l-2.9,4.3c0,0,0.1-3.6-1.1-6.6s-4-6.5-4-6.5l-0.8,3c0,0-3-4.5-7.2-7.8
		C246.8,333.2,241.3,332.9,241.3,332.9z"/>
	<path class="st3" d="M279.8,405.5c-1-5.9-5-19.1-8-26.1c-2-4.7-4.9-9.3-7.1-12.6c-1.1-1.7-2-3.1-2.4-3.9c-0.5-1.2-0.7-2.6-0.7-3.7
		c0-0.1,0-0.2,0-0.3c-0.9,1-2.9,3.4-2.9,3.4v-1.4c0-0.1,0-5.5-0.2-9c-0.2-2.3-0.9-3.7-1.3-4.4c-0.4,0.4-1.1,1.4-1.1,1.4l-0.4-0.3
		c-0.1,0-1.4-1.1-3.9-5.4c-2.2-3.8-6.1-6.2-10.4-6.5c-3.8-0.2-7.6,3.4-9.3,5.6c-1.7,2.2-4.7,5.2-4.8,5.3l-0.5,0.5
		c0,0-0.8-1.4-1.1-2.1c-0.7,1.2-4.1,6.9-4.1,6.9s-0.6-1.6-0.8-2.3c-0.3,1.1-0.8,2.7-1.6,5c-1.4,4.1-5.2,12.2-10.8,22.8
		c-5.3,10.1-7.6,15.9-9.7,24.9c-0.5,2.2-0.8,4.6-0.8,7.2c0,5.6,1.3,12.2,3.8,19.7c1.8,5.3,2.9,11.6,3.3,14.1
		c1.2-1.7,3.8-5.3,4.5-6.7c1.1-2.2,2.5-6.7,3.2-11.8c0.7-5.5,3-15.3,4.5-18.9c1-2.3,4.8-10.1,12.9-15.7c7.8-5.4,13.3-3,17.8-0.3
		c4.5,2.7,7.2,7.6,10.1,12.7l1.1,2c2.8,5,4.8,10.6,6.1,16.6c1.2,6,2.4,10.5,3.2,12.1c0.8,1.6,4.1,7.1,5.4,9.3
		c0.7-2.2,2.3-7.7,4.2-15.7c1.5-6.5,2.3-11.6,2.3-16.2C280.3,409.7,280.1,407.6,279.8,405.5z"/>
	<path class="st0" d="M255.9,481.5c1.7-11.5,4-19.8,1.2-47.8c-2.7-27.1-16.6-40.5-17.6-41.4c-0.9,0.9-14.9,14.3-17.6,41.4
		c-2.8,28-0.5,36.2,1.2,47.8s8.8,35.7,9.8,44.3c2.2,19.2,6.6,31.2,6.6,31.2s3.9-10.7,6.5-31.2C247.2,517.2,254.2,493,255.9,481.5z"
		/>
	<path class="st4" d="M223.3,481.5c-1.8-11.5-4-19.8-1.2-47.8c2.7-27.1,16.6-40.5,17.6-41.4c0,0,0,0,0,0c0,0,0,0-0.1,0
		c-0.2,0-0.4,0-0.7,0c-0.1,0-0.3,0-0.4,0.1c-0.1,0-0.2,0-0.3,0c-7.5,1.4-14.5,11-16.6,15c-2.2,4.2-5,15.9-7.3,30.7
		c-2.3,14.7-0.2,23.9,2,34.6s6.2,22.8,11.8,50.3c5.5,27.5,11.6,33.9,11.6,33.9s-4.4-12-6.6-31.2C232.1,517.1,225.1,493,223.3,481.5z
		"/>
	<path class="st4" d="M264.4,438.3c-2.3-14.7-5.3-23.9-7.6-28.2c-2.2-4.2-9.2-17.7-17.1-17.8h0h0c0,0,0,0,0,0
		c0.9,0.9,14.9,14.3,17.6,41.4c2.8,28,0.5,36.2-1.2,47.8c-1.8,11.5-8.7,35.7-9.8,44.3c-2.6,20.5-6.5,31.2-6.5,31.2s5.5-6.5,11-34
		c5.5-27.5,10-39.4,12.3-50.1C265.2,462,266.7,453.1,264.4,438.3z"/>
	<path class="st4" d="M221.7,492.2c0,0-5.4-2.8-7.4-9.3s-5.6-13.6-6.5-15.5c-1.8-3.6-3.5-11.2-2-15.5s2.8-4.8,4-6.8s-0.4,0-0.1,9
		C210.3,474.5,221.7,492.2,221.7,492.2z"/>
	<path class="st4" d="M257.4,492.1c0,0,5.4-2.8,7.4-9.3s5.8-13.5,6.5-15.5s3.9-9.8,2-15.5c-1-2.9-1.4-3.9-2.6-6
		c-1.5-2.6-3.1-5.7-3.1-5.7c-1.2-2.4,2.2,5.5,1.9,14.5C268.9,473.8,257.4,492.1,257.4,492.1z"/>
	<path d="M259.6,397.8L259.6,397.8c0.2,0.9,0.6,2.1,1.7,4.8c1.1,2.7,3.4,6.8,3.4,6.8s1.7-2.2,2.5-6.4c0.5-2.9-0.1-6.3-1.6-8.5
		C263.5,391.4,258.3,389.5,259.6,397.8z"/>
	<path d="M218.8,397.8L218.8,397.8c-0.2,0.9-0.6,2.1-1.7,4.8c-1.1,2.7-3.4,6.8-3.4,6.8s-1.7-2.2-2.5-6.4c-0.5-2.9,0.1-6.3,1.6-8.5
		C215,391.4,220.1,389.5,218.8,397.8z"/>
</g>
</svg>
