<svg viewBox="0 0 200 200" xmlns="http://www.w3.org/2000/svg" xmlns:xlink="http://www.w3.org/1999/xlink" version="1.1" id="Lager_1" x="0px" y="0px">
    <style type="text/css">
        .cls-3,.cls-4{fill:#fff;fill-rule:evenodd}.cls-4{fill:#e33125}
    </style>
    <g data-name="Lager 1">
        <path d="M20.42 3.33c-5.69 0-7.42 1-7.42 7.25l3.11 103.23c2.41 66.29 59 82.86 83.89 82.86s81.48-16.57 83.89-82.86L187 10.58c0-6.21-1.73-7.25-7.42-7.25z" fill-rule="evenodd" stroke="#ccdce5" stroke-linecap="round" stroke-linejoin="round" stroke-width="1.73" fill="#fff"/>
        <path d="M23.06 147.28C39.42 186 80 196.67 100 196.67s60.64-10.68 77-49.45c-5.12-3-7.62-6.48-14-6.48-10.19 0-13.47 7.77-27.11 7.77-16.39 0-17.43-10.88-35.9-10.88s-19.51 10.88-35.9 10.88c-13.64 0-16.92-7.77-27.11-7.77-6.33 0-8.8 3.56-13.93 6.54z" fill="#124a97" fill-rule="evenodd" stroke="#ccdce5" stroke-linecap="round" stroke-linejoin="round" stroke-width="1.73"/>
        <path class="cls-3" d="M56.53 159.08h-3.98v-3.1h11.41v3.1h-3.99v19.89h-3.44v-19.89zM65.59 155.98h3.44v22.99h-3.44v-22.99zM72.39 155.98h3.31l4.42 12.17h.07l4.39-12.17h3.34v22.99h-3.45v-13.98h-.06L81 174.87h-1.72l-3.38-9.88h-.06v13.98h-3.45v-22.99zM91 156h5.53c4.09 0 6.08 2.29 6.08 6.75 0 2.65-.78 4.58-3 5.75l3.75 10.5h-3.64l-3.21-9.82h-2.06V179H91v-23zm3.44 10.27h2c2.4 0 2.77-1.29 2.77-3.59s-.41-3.58-2.94-3.58h-1.82v7.17z"/>
        <path class="cls-3" d="M110.16 148.71a3.3 3.3 0 11-3.44 3.3 3.41 3.41 0 013.44-3.3zm0 5.26a2 2 0 10-2.06-2 2 2 0 002.06 2zm0 8.63h-.07l-1.68 8.33h3.44l-1.69-8.33zm-1.45-6.6h2.87l5.36 23h-3.44l-1-4.94h-4.7l-1 4.94h-3.45l5.37-23zM123.48 155.98h3.44v22.99h-3.44v-22.99zM130.28 155.98h3.45v10.49h.06l5.03-10.49h3.44l-4.69 9.2 5.57 13.79h-3.64l-3.92-10.2-1.85 3.32v6.88h-3.45v-22.99z"/>
        <path class="cls-4" d="M65.56 16.19c.75.07 1.35.43 2.07.18l.35.17a2 2 0 001.21 1.21 1.48 1.48 0 01.69-.52c.29.4.78.36 1.21.34.76.3 1.43.7 1.55 1.56.26.06.43-.23.69-.17.81 1.33 2.56 1.4 4 1.55a2.57 2.57 0 01.69 1c.32-.09.56.2.86.18a.9.9 0 01.35.86l.34.17c1.93-.56 3.24 1.87 3.63 3.45v.7a3.29 3.29 0 01-.35 4v.86l-.51.52c-1.72.36-3.59.27-4.84-1.21a3.88 3.88 0 01-1.55-.17c-.6.28-1.31.17-1.9.51-1.19-.54-2.58-1.11-3.8-.34a12.6 12.6 0 00-1.38 2.42v2.76a12.91 12.91 0 001.21 1.55 11.72 11.72 0 013.28 1.38h1.21a6.83 6.83 0 002.07 1.21c.65-.11 1.25.25 1.9.17a35.06 35.06 0 004.66 2.25c.56.47 1 1.11 1.55 1.55l.69.35a4.14 4.14 0 013.11 1.2 3.23 3.23 0 01-.37 2.12c1.26.95.23 2.31-.18 3.45v.52c-.51.53-.52 1.46-1.38 1.72a14.73 14.73 0 01-1.21 2.07 1.69 1.69 0 00-.69.52 2.68 2.68 0 01-1 1.55 24.07 24.07 0 00-2.94.35 2.51 2.51 0 01-1.72.34l-.69.35a3.73 3.73 0 01-2.08-.35h-.69l-.69-.34c0 .06-.11.11-.17.17-.56-.44-1.13.09-1.72 0-1.29-.73-2.64-.33-4 0-.65.53-.78 1.48-1.56 1.9a16.85 16.85 0 000 5.35c-.32.35 0 .87-.34 1.21a3.83 3.83 0 001.38 1.69c.41.06.27-.42.52-.52a3.78 3.78 0 002.07-.35A2.92 2.92 0 0173 68h1.55c1.68.65 3.35 1.59 5.18 1.55a4.87 4.87 0 003.79.69 2.39 2.39 0 002.25.69l.34.18a2.41 2.41 0 011.9-.87 4.37 4.37 0 003.46 1.56c.78.36 1 1.25 1.72 1.72a3 3 0 00.87 1.21c.22 1.42.65 3 0 4.32a7.88 7.88 0 01-1.56 1.38c-.38 1.38-1.17 2.68-1 4.14a7 7 0 00-.87 2.93c-.57.56-1.46.52-1.9 1.21a10.23 10.23 0 01-2.07 0c-.24.38-1-.08-1 .52A5.81 5.81 0 0183 89c-.24.32-.58.11-.87.17a3.58 3.58 0 01-2.59-2.93l.18-.35c-.28-.67-.67-1.46-1.56-1.38l-.69.35c-2 2.39-4.76 4-7.25 5.86a17.33 17.33 0 00-3.28 6.56v4.66c-.23.25-.11.63-.34.87.43 1.36 0 2.76.17 4.14a.76.76 0 00-.17.52c.34 1.4-.21 2.88 0 4.31a.86.86 0 01.17.69c-.23.26-.16.57-.17.87.74 2.44.17 5 .34 7.42l.35.69c-.19 1 .47 1.93.52 2.94a2.93 2.93 0 00.86 1.2c0 .35.26.57.35.87 2.94 2.71 7 2 10.7 2.41.24.24.62.12.86.35h1.21c1 .79 2.81.78 3.11 2.24l-.52.52c-1-.09-2 .48-2.94-.17-.17.29-.45.13-.69.17a4.23 4.23 0 00-1.55-.86 13.27 13.27 0 01-5.18.69c-1 .22-1.18 1.21-.86 2.07a12.34 12.34 0 002.59 1.55c.88 0 1.59.72 2.41 1a1.24 1.24 0 01-1.2 1.21c-.82.29-1.69.15-2.42.69H72c-.94-.62-2.16-.68-2.93-1.56a14.77 14.77 0 00-2.77-1.2c-.75.38-1.58.79-1.72 1.72a11.24 11.24 0 00.69 2.25 4.12 4.12 0 01-1 1.55 1.14 1.14 0 01-1.72-.86c-.33-.15-.77-.21-.69-.69.68-1-.14-2.16 0-3.28-.51-.55-1.07-1.23-1.9-1-1.76.6-3.25 1.67-5 2.24h-3.73a1.58 1.58 0 01-.69-.51 3.44 3.44 0 011-1.56 10.52 10.52 0 003.11-1.72c.05-.6.47-1 .69-1.56 0-.67-.74-.9-1.21-1.21a31.7 31.7 0 01-3.63-.51 9.12 9.12 0 00-2.41-.69 1.37 1.37 0 00-.09.26 6.5 6.5 0 01-2.42-.86 1.1 1.1 0 01-.35-1c3.38-2.1 7.5-.7 11.22-1.38.38-.08.43-.61.87-.52 2.38-1.44 2.41-4.46 2.93-6.9a.76.76 0 01-.17-.52c.37-.71 0-1.53.34-2.24-.28-.38-.14-.81-.17-1.21.23-.24.11-.63.35-.87-.38-.42-.08-.92-.18-1.38l.18-.34c-.3-.17-.15-.45-.18-.69a36 36 0 00.35-5.18 1.13 1.13 0 00.34-.52l-.34-.69c-.12-1.38.24-2.78-.17-4.14.07-.69-.17-1.41.17-2.07.09-.37-.14-.69-.17-1a8.05 8.05 0 00.17-2.59.86.86 0 01-.17-.69c0-.12.11-.23.17-.35-.29-2.89-2.41-5.06-4.49-6.9-1.44-.67-2.86-1.66-4.49-1.73-.89.23-1.46 1-2.24 1.38h-1a13.87 13.87 0 01-2.41.87c-1.44-.58-2.86.36-4.32.17-.24-.23-.62-.11-.86-.34-.66-1.06-1.9-.9-2.94-1.21a2.3 2.3 0 01-.34-1.56c-.16-.45-.57-.69-.86-1v-1.89a2.89 2.89 0 01-.35-1.9l-.47-.69a3.44 3.44 0 01-1.55-1.38c.06-.11.12-.23.17-.34-.5-.67.09-1.38 0-2.08-.3-.43-.12-.91-.17-1.38l1.38-.69v-.34a6.94 6.94 0 011.38-1.38h1.38c.95-.42 1.84-1.14 2.94-1a15.14 15.14 0 011.9-1h1.38a11.89 11.89 0 016-1.56l1-.52c.74.08 1.51-.18 2.24.18.5-.34 1.11-.08 1.55-.52h1.21a10.36 10.36 0 013.45-.86 2.77 2.77 0 001.56-1.9c-.38-.81 0-1.6 0-2.42a4.1 4.1 0 01-.35-2.24c-.07-.31-.45-.49-.34-.87.06-.11.11-.23.17-.34a7.83 7.83 0 01-1-2.25 7.86 7.86 0 00-2.07-1 11.54 11.54 0 01-5 1.21 2.89 2.89 0 00-1.21.86c-1 .08-2.19-.44-2.94.52a2.21 2.21 0 01-1.72-.52c-.58 0-1.17.41-1.73 0l-.34-.69c-1-.54-2.27-.72-2.77-1.9-.6-.08-1.08-.58-1.72-.52-.18-.28-.66-.26-.69-.69l.34-.69c-.31-.74-.61-1.56 0-2.24.07-1.27.25-2.53.35-3.8a4.47 4.47 0 001-3.11 1.13 1.13 0 01.52-.34 1.93 1.93 0 002.42-1.73c1.09-.54 2.38-.41 3.45-1h.86c.57-.31 1.15-.6 1.73-.87.82.21 1.64-.48 2.42 0 1-.75 2.42-.35 3.62-.34.47-.17.83-.58 1.38-.52.26.23.57.16.87.17a2.77 2.77 0 011.72-.52c1.56-.31 1.92-2 2.76-3.1a8.5 8.5 0 00-.51-3.46c-.91-.59-1.34-1.65-2.25-2.24-.4-.32-.94-.29-1.38-.52-.15.16-.33.27-.69 0l-.35.18-.23-.31c-1.28.7-2 2.12-3.45 2.42a13 13 0 01-2.07-.35c-.88.38-1.71.85-2.59 1.21h-.69c-.89-.62-1.79-1.43-2.94-1.38l-.34-.34v-.87a3.09 3.09 0 010-3.79 12 12 0 011.55-.35c.49-.25.71-.81 1.21-1 .21-.42.2-.83.52-1.2v-.69c.54-.65 1.3-1.82 2.24-1.39.61-.38 1-1.05 1.73-1.2-.05-.17 0-.26.17-.35.47.07.56-.36.69-.69a11 11 0 011.38-.86l.35.17a1.1 1.1 0 01.51-.34v-.35a2.93 2.93 0 011.56-1 1.1 1.1 0 01.34-.51c.62-.12 1.14.23 1.73.34l.34-.17c.08-.5.43-.65.69-1a18.23 18.23 0 004.49 0zm-4.49 65.43a1.83 1.83 0 00-2.59.51 2 2 0 00-1.89 1.21c0 .41-.11.84.17 1.21-.06.12-.12.23-.17.35 1.88.23 2.86 1.91 4.14 3.1a2.81 2.81 0 001.73.18c.25-.52.14-1.1.51-1.56-.36-.36 0-.94-.51-1.21v-.51c-.54-1.07-.63-2.32-1.39-3.28zm5.7-1a13.49 13.49 0 00-.69 2.24 19 19 0 010 3.46 2.06 2.06 0 002.59.34c0-.38.29-.63.52-.86a.76.76 0 00.17-.52c1.38-1.17 1-3 .35-4.49a2.14 2.14 0 00-2.94-.17zm6.39-.17a5.1 5.1 0 00-1 3.62c.33 1 1.44.93 2.25.69.37-.46 1-.63 1.38-1 .35-.67.56-1.39.86-2.07a.92.92 0 00-.35-.87c-1-.31-1.91-1.16-3.1-.34zM135.82 16.54c.77.05 1.61-.2 2.24.34.24-.32.58-.11.87-.17a16.08 16.08 0 012.76.86c.3-.06.48-.45.86-.34.76.44 1.47.95 2.24 1.38 1.79.18 2.65 1.92 4 2.93v.35a1.58 1.58 0 00.51.69c.4.21.92.35 1 .86a2.49 2.49 0 012.44 1.56 6.58 6.58 0 011.89 1c.07.75.42 1.51 0 2.25a.87.87 0 00.18.69 11.47 11.47 0 01-.18 2.41 4.57 4.57 0 01-2.59.69c-.34-.07-.51-.44-.86-.51a8.45 8.45 0 00-2.24-.18 14.94 14.94 0 01-1.21-1 1.1 1.1 0 00-.86-.17c-1.36-1.23-3.47-2.05-5.18-1a4 4 0 00-1.21 1.9l-.35.17a3.12 3.12 0 01-.51 1.9c-.39 2.9-.41 6.81 2.76 8.11 2.31 0 4.57.73 6.9.52 1.32 1 2.92 1 4.49 1.21.7.57 1.43.92 2.07 1.55.38-.1.56.28.87.35.37.71.46 1.54.86 2.24 2 .75 2 3.21 1.9 5A7.2 7.2 0 01157.4 54a.65.65 0 01-.52.51c-.09.81-1 1.12-1.56 1.56h-.69a7.29 7.29 0 00-1.72.86h-4.32a24.18 24.18 0 01-2.24-1.21c-.27-.73-1.14-.82-1.73-1.21-1.36.55-3 1.52-3.1 3.11a24.82 24.82 0 00-1.21 2.38v.52c-.69 1-.11 2.17-.18 3.28.42.5.53 1.32 1.21 1.55a2.14 2.14 0 011.56.34 7.49 7.49 0 00.69 1.56c.62.29 1.32.1 1.9.52.36-.45.78.1 1.2 0a4.49 4.49 0 002.42 1.55c.45.74.54 1.7 1.55 1.9a5.1 5.1 0 013.63 0c.89-.46 1.84-.82 2.76-1.21.43.3.92.13 1.38.17 1.26-.43 2.7-1 4-.34h.52c.54.05.53.77 1 .86a4.65 4.65 0 00.86 3.45 8.74 8.74 0 01-.35 3.8l.18.35a12.62 12.62 0 01-.87 1.2 20.4 20.4 0 01-2.93 5.7c-.39 0-.63.29-.86.52h-.69c-1.09.37-2.1 1-3.28.86a1.18 1.18 0 00-.52-.34c-.75.08-1.19-.62-1.9-.69-.41-.65-.57-1.44-1.21-1.9-.49-.85-.26-2.2-1.38-2.59a7.31 7.31 0 00-5 2.24l-.69.35c-1.07 1.37-2.65 2.2-3.45 3.79-.34.35-.69.7-1 1-.16.32-.19.66-.51.86a17.12 17.12 0 00-1 2.94l-.34.17c.16.94-.3 1.88 0 2.76-.47.62-.06 1.33-.18 2.07l-.17.35c.3.43.13.92.17 1.38-.16.15-.26.33 0 .69.1.32-.2.56-.17.86s.27.33 0 .69l.17.18a3.08 3.08 0 00-.17 1.72l-.17.35c.45.62-.07 1.25 0 1.9a.89.89 0 01.17.69.86.86 0 00-.17.69 13.88 13.88 0 01.17 3.8 14.11 14.11 0 01.35 2.24.75.75 0 00-.18.52c.4 1.07.07 2.19.18 3.28.23.24.11.62.34.86a11.46 11.46 0 003.28 7.42 8.44 8.44 0 004 1.9c2 .11 3.94-.44 5.87.17.37.09.67-.25 1-.17a3.52 3.52 0 002.76.69 1.48 1.48 0 00.69.52h.34a11.08 11.08 0 002.25 1.21 1.22 1.22 0 01.34 2.07 7.58 7.58 0 01-3.28-.69l-.17.17c-.65-.34-1.42-.17-2.07-.52-.61.47-1.25-.14-1.9 0-.15.16-.33.27-.69 0l-.17.18c-.31 0-.55-.27-.87-.18-1.1.62-2.41 0-3.62.18l-.35.17a3.54 3.54 0 00-2.76.52c-.35.8-1.05 1.67-.52 2.59l.69.34c1.15-.11 2.32.23 3.46-.17a7.22 7.22 0 012.07.17c1 .65 2.37.84 2.76 2.07a1.55 1.55 0 01-.69 1.56 1.59 1.59 0 01-1.73-.18c-1.75-.23-3.51.67-5.18 0-2.34.86-4.74-.54-6.9-1.38-1.1.22-.86 1.41-.86 2.25.19.35.44.61.34 1a4.61 4.61 0 00.87 1.56c0 .51-.57.5-.87.69 0 .16-.05.26-.17.34H136c-.73-.24-1.09-1-1.72-1.38 0-.11.11-.23.17-.34a10.65 10.65 0 01-1.56-2.94c-.4.06-.23-.45-.51-.52-.49-.3-1-.12-1.56-.17-.35.07-.51.45-.86.52-1-.13-1.78.73-2.76.69a10 10 0 00-1.21.52c-.35 0-.72.08-1-.18-.54.4-1.15.07-1.72.18a1.31 1.31 0 01-1-1.56c1.15-1.5 2.89-2.34 4.49-3.28 1 .21 1.28-.9 1.73-1.55-.14-.46-.67-.61-1-.86-1 .25-1.79-.49-2.76-.18a10 10 0 01-1.21-.51l-.17.17c-.29-.29-.75 0-1-.35a5.4 5.4 0 01-2.42-.17c-.14.16-.32.27-.69 0-.39.25-.93.23-1.2.69a4.46 4.46 0 00-3.63.17c-.15-.16-.33-.26-.69 0a3.06 3.06 0 01-2.07-1v-.35c.4-.32.94-.29 1.38-.51l.35-.69a3 3 0 001.2-.87 4.22 4.22 0 001.56-.69c2.25-.06 4.5-.54 6.73 0 .31-.26.68-.15 1-.17 1.2.51 2.42-.1 3.62-.17a2.41 2.41 0 00.86-.69h.35a4.18 4.18 0 002.07-4.49c.75-.91.61-2 .52-3.11.29-1.25.28-2.54.52-3.8a.74.74 0 01-.18-.51l.18-.35a5.08 5.08 0 01.34-3.62c-.28-.15-.1-.53-.34-.69.27-2.65.44-5.3.69-7.95a1.14 1.14 0 01-.18-.86c.26-.31.15-.68.18-1-.29-.37-.14-.81-.18-1.21.44-1.89 0-3.8.18-5.7-.13-.72-.65-1.32-.69-2.07a16.68 16.68 0 00-4.49-4.49c-2-.9-4.16-1.56-6.22-2.42-1.33-.25-1.88 1-2.24 2.08l-.52.51a3.28 3.28 0 00-2.34 1.43 2.85 2.85 0 01-1.38 1.73 3.73 3.73 0 01-3.8-2.07 2 2 0 00-1.21-.35 6.1 6.1 0 01-1-.86c-.12-.64-.73-.85-1-1.38a2 2 0 00-.35-1.38 22 22 0 00-.17-4.66c.62-1.51 0-3.1.17-4.66a1.53 1.53 0 00.52-.69 1.73 1.73 0 011-1.73 2 2 0 001.38-.34c.62.32 1.34 0 1.9.51.85.05 1.45-.57 2.07-1a.93.93 0 01.69-.87c.7-.1 1.37.27 2.07.18a8.22 8.22 0 002.07-1.38 2.76 2.76 0 001.56-.35l1-1c1.3-.42 2.3-1.42 3.63-1.73.43.3.92.13 1.38.17.87-.29 1.32-1.06 2.07-1.55a4.37 4.37 0 004-.86c1.71-3.32-.72-7-4-8.12a2.05 2.05 0 00-1.38.35c-.28.58-1 1-.52 1.72a2.6 2.6 0 01-.69 1c-1.23.09-1.79 1.32-2.76 1.9h-1c-.9-1.45-2.61-.61-4-.69-1.47-.58-2.27-2.26-2.59-3.8.06-.11.12-.23.17-.34-.41-.84-.91-1.62-1.38-2.42-.63-1.9-.51-3.91-.69-5.87a.75.75 0 00.18-.52c.77-.33 1.91 0 2.24-1-.23-1.15.73-1.92 1.38-2.77 1-.28 2-.07 2.94-.34a17.88 17.88 0 002.5-1.78c.91-.11 2-.47 2.59.52a2.32 2.32 0 002.25-.69c.57.07 1.18-.17 1.72.17.41.07.7-.2 1-.34a3.28 3.28 0 003.8-2.07 14.55 14.55 0 01.34-2.08c.14-.95-.47-1.81-.34-2.76-.5-.67-.76-1.77-1.73-1.9l-.17-.34a2.7 2.7 0 01-1.38-.35 1.63 1.63 0 00-1.56.87h-.86a6.06 6.06 0 01-3.28.86 5.61 5.61 0 00-1 .69h-.87a2.74 2.74 0 00-3.1-.35 1.35 1.35 0 01-.52-1.38 6.74 6.74 0 00-1.9-1.9c-.85-1.43.4-2.53 1.72-2.93a1.83 1.83 0 00.35-1.21c.59-.69 1.21-2 2.42-1.38.38-.08.39-.53.69-.69 1-.6 2.1-.85 3.1-1.38.73-1 1.93-1.28 2.94-1.9.34-.34.39-.84.69-1.21a14.83 14.83 0 012.76-1.38c.9.67 1.69-.15 2.25-.86zm-2.07 64.56c-.71-1.2-2-2.48-3.46-2.42-.87.59-1 1.77-1.55 2.59 0 1.65 1.61 2.44 2.76 3.28h.35c.19.79 1 .37 1.55.17.17-1.21 1-2.46.35-3.62zm8.11-2.76a1.83 1.83 0 00-2.42 0 2.56 2.56 0 01-.51 1.38c0 1.39-.45 3.81 1.55 4a13.43 13.43 0 002.24-1.21c0-.56.49-.91.69-1.38.22-1.22-.68-2.09-1.55-2.76z"/>
        <path fill="none" d="M0 0h200v200H0z"/>
    </g>
</svg>
